<?xml version="1.0" standalone="no"?>
<!DOCTYPE svg PUBLIC "-//W3C//DTD SVG 1.1//EN" "http://www.w3.org/Graphics/SVG/1.1/DTD/svg11.dtd" >
<svg xmlns="http://www.w3.org/2000/svg">
<metadata>
This is a custom SVG webfont generated by Font Squirrel.
Copyright   : Copyright c 1990 1991 Adobe Systems Incorporated All Rights ReservedGill Sans is a registered trademark of The Monotype Corporation Plc
Foundry     : Adobe Systems Incorporated
</metadata>
<defs>
<font id="GillSansItalic" horiz-adv-x="960" >
<font-face units-per-em="2048" ascent="1638" descent="-410" />
<missing-glyph horiz-adv-x="569" />
<glyph unicode=" "  horiz-adv-x="569" />
<glyph unicode="&#x09;" horiz-adv-x="569" />
<glyph unicode="&#xa0;" horiz-adv-x="569" />
<glyph unicode="!" horiz-adv-x="512" d="M86 90q0 49 35 84t84 35t84 -35t35 -84t-35 -84t-84 -35t-84 35t-35 84zM193 340q12 109 21 225.5t15.5 228t11.5 213t9 181.5q8 123 36.5 175t98.5 52q41 0 61.5 -31.5t20.5 -89.5q0 -39 -17.5 -130t-46 -218t-64.5 -282.5t-71 -323.5h-75z" />
<glyph unicode="&#x22;" horiz-adv-x="724" d="M176 1227v239h197v-239l-47 -281h-103zM508 1227v239h197v-239l-48 -281h-102z" />
<glyph unicode="#" horiz-adv-x="1196" d="M0 233v142h213l74 348h-287v141h315l84 400h148l-84 -400h397l84 400h148l-84 -400h186v-141h-215l-74 -348h289v-142h-317l-84 -399h-148l84 399h-397l-84 -399h-148l84 399h-184zM360 375h398l73 348h-397z" />
<glyph unicode="$" horiz-adv-x="1024" d="M82 92l29 201q33 -20 62.5 -37.5t62 -33t73.5 -30t97 -30.5l59 438q-154 86 -230.5 172t-76.5 207q0 72 30.5 134.5t86 110.5t131 76.5t163.5 32.5l11 82h151l-10 -82q84 -10 143.5 -32.5t124.5 -63.5l-26 -184q-125 80 -267 108l-61 -438q68 -37 125 -76t99 -85 t64.5 -100t22.5 -120q0 -68 -28.5 -131.5t-83 -112.5t-131 -79.5t-173.5 -36.5l-28 -207h-152l29 207q-178 24 -297 110zM342 1001q0 -57 33 -98t121 -94l49 358q-92 -14 -147.5 -58.5t-55.5 -107.5zM553 150q92 8 151.5 58t59.5 118q0 109 -158 194z" />
<glyph unicode="%" horiz-adv-x="1449" d="M119 1104q0 66 23.5 123t65.5 99t99.5 65.5t122.5 23.5q63 0 119.5 -23.5t99.5 -65.5t67.5 -99.5t24.5 -122.5q0 -63 -24.5 -119.5t-67.5 -99.5t-99 -67.5t-120 -24.5q-66 0 -123 25.5t-99 68.5t-65.5 99.5t-23.5 117.5zM219 -18l920 1433h153l-917 -1433h-156zM268 1104 q0 -31 13.5 -60.5t36 -52t51 -36t61.5 -13.5q70 0 116 48t46 114q0 70 -48 116t-114 46q-68 0 -115 -45t-47 -117zM770 295q0 66 23.5 123t65.5 99t99.5 65.5t122.5 23.5q63 0 119.5 -23.5t99.5 -65.5t68 -99.5t25 -122.5q0 -63 -25 -119.5t-68 -99.5t-99 -67.5t-120 -24.5 q-66 0 -123 25.5t-99 68.5t-65.5 99.5t-23.5 117.5zM920 295q0 -31 13 -60.5t35.5 -52t51.5 -36t61 -13.5q70 0 116 48t46 114q0 70 -48 116t-114 46q-68 0 -114.5 -45t-46.5 -117z" />
<glyph unicode="&#x26;" horiz-adv-x="1409" d="M104 373q0 61 24 121.5t66 115t102 99.5t134 77q-33 63 -55.5 137t-22.5 158q0 72 24.5 132.5t68.5 105.5t103.5 70.5t129.5 25.5q57 0 106.5 -21.5t86 -60.5t58 -91t21.5 -112q0 -113 -71.5 -214t-225.5 -187q16 -31 48 -78t71 -99t82 -104.5t80 -95.5q84 84 137 175 t86 175h180q-14 -39 -41.5 -97t-64.5 -122.5t-82 -128t-96 -110.5q45 -43 86 -66.5t74.5 -34t57 -12.5t34.5 -2q10 0 21 1t24 5l-68 -145q-16 -8 -49 -8q-35 0 -75 12t-81 32.5t-77.5 48t-65.5 60.5q-98 -72 -200.5 -112.5t-231.5 -40.5q-100 0 -175 31.5t-124 86t-74 125 t-25 148.5zM293 371q0 -104 70.5 -171t181.5 -67q121 0 270 109q-33 37 -76 89t-86 107.5t-80.5 109.5t-62.5 95q-217 -120 -217 -272zM518 1075q0 -49 12.5 -94t44.5 -115q90 45 143.5 114t53.5 140q0 61 -33.5 100.5t-87.5 39.5q-55 0 -94 -53.5t-39 -131.5z" />
<glyph unicode="'" horiz-adv-x="385" d="M176 1227v239h197v-239l-47 -281h-103z" />
<glyph unicode="(" horiz-adv-x="598" d="M109 311q0 164 36.5 310.5t101 281.5t151.5 261t188 251h98q-76 -94 -141.5 -215t-130.5 -274q-27 -63 -52.5 -159.5t-44 -204t-30 -213t-11.5 -185.5q0 -174 33 -337t94 -298h-86q-39 74 -75.5 166t-66.5 195.5t-47 211t-17 209.5z" />
<glyph unicode=")" horiz-adv-x="598" d="M-113 -471q76 94 141.5 215t131.5 274q29 63 53.5 159.5t42.5 204t29.5 213t11.5 185.5q0 174 -33 337t-94 298h86q39 -74 76 -166t66.5 -195.5t47 -211t17.5 -209.5q0 -164 -37 -310.5t-101.5 -281.5t-151.5 -261t-187 -251h-99z" />
<glyph unicode="*" horiz-adv-x="917" d="M135 827q0 41 34 63.5t77 39.5l215 74q-6 27 0 47l-232 86q-90 33 -90 82q0 35 21.5 57t50.5 22q20 0 41.5 -15t54.5 -44l168 -158q4 6 15.5 12.5t23.5 8.5l-47 244q-10 55 1 98t60 43q47 0 62.5 -38t5.5 -87l-51 -260q10 -2 22.5 -7t18.5 -14l172 164q25 25 50.5 38 t43.5 13q29 0 47.5 -20.5t18.5 -52.5q0 -25 -15.5 -46.5t-50.5 -33.5l-254 -92q4 -10 4 -23.5t-4 -23.5l207 -76q113 -41 113 -103q0 -23 -20.5 -45t-45.5 -22q-47 0 -119 71l-147 146q-20 -20 -41 -21l47 -252q10 -55 -5.5 -94t-58.5 -39q-47 0 -62 44t-1 110l49 231 q-12 2 -18.5 5.5t-20.5 15.5l-160 -148q-35 -31 -60.5 -49t-57.5 -18q-23 0 -42.5 20t-19.5 47z" />
<glyph unicode="+" horiz-adv-x="1196" d="M145 639v168h400v399h168v-399h399v-168h-399v-399h-168v399h-400z" />
<glyph unicode="," horiz-adv-x="405" d="M-49 -295l12 90q135 45 135 176q-80 35 -80 105q0 53 36 87t93 34q55 0 92 -46.5t37 -115.5q0 -59 -23.5 -111.5t-66.5 -95.5t-102 -75t-133 -48z" />
<glyph unicode="-" horiz-adv-x="512" d="M0 369l25 174h487l-25 -174h-487z" />
<glyph unicode="." horiz-adv-x="405" d="M33 90q0 49 34.5 84t84.5 35q49 0 83.5 -35t34.5 -84t-34.5 -84t-83.5 -35t-84 35t-35 84z" />
<glyph unicode="/" horiz-adv-x="575" d="M57 -18l402 1433h143l-401 -1433h-144z" />
<glyph unicode="0" horiz-adv-x="1067" d="M104 479q0 78 12.5 177.5t39 203t69.5 203.5t105.5 178t146.5 126t191 48q80 0 145.5 -29.5t113.5 -91t73.5 -157t25.5 -228.5q0 -154 -34 -318.5t-102.5 -299.5t-173 -222t-243.5 -87q-182 0 -275.5 122.5t-93.5 374.5zM297 483q0 -162 44 -249t130 -87q72 0 137.5 67 t116.5 175.5t82 250.5t31 292q0 156 -43 236.5t-136 80.5q-68 0 -133 -66.5t-115.5 -175t-82 -246t-31.5 -278.5z" />
<glyph unicode="1" horiz-adv-x="1067" d="M360 0l224 1415h182l-221 -1415h-185z" />
<glyph unicode="2" horiz-adv-x="1067" d="M35 0q211 258 348 437t218 302t112.5 200t31.5 128q0 82 -52 128t-144 46q-141 0 -305 -121l26 199q86 51 159 73.5t157 22.5q154 0 246 -91t92 -243q0 -74 -30 -156.5t-95.5 -190t-170 -245t-253.5 -317.5h532l-24 -172h-848z" />
<glyph unicode="3" horiz-adv-x="1067" d="M49 59l25 166q70 -35 139.5 -56.5t163.5 -21.5q135 0 218 70t83 186q0 63 -23.5 109.5t-60.5 75t-82 41t-88 8.5l22 166q80 6 139.5 29.5t98.5 58.5t58.5 77t19.5 83q0 90 -59.5 144t-159.5 54q-70 0 -142.5 -23.5t-136.5 -64.5l27 193q141 61 289 61q172 0 273 -98 t101 -264q0 -233 -272 -334q188 -80 188 -316q0 -59 -24.5 -131.5t-80.5 -137t-149.5 -108.5t-230.5 -44q-98 0 -183 23t-153 54z" />
<glyph unicode="4" horiz-adv-x="1067" d="M80 430v80l741 905h111l-129 -835h201l-21 -150h-207l-67 -430h-179l74 430h-524zM315 580h312l80 471l-5 4z" />
<glyph unicode="5" horiz-adv-x="1067" d="M31 86l63 162q70 -53 136.5 -77t144.5 -24q72 0 130 24t101 67t66.5 102t23.5 129q0 111 -77.5 176.5t-212.5 65.5q-31 0 -55.5 -3t-67.5 -14l125 703h569l-31 -172h-401l-56 -348q186 -10 293 -118t107 -288q0 -109 -39 -199t-107.5 -154.5t-165 -100t-212.5 -35.5 q-195 0 -334 104z" />
<glyph unicode="6" horiz-adv-x="1067" d="M111 408q0 53 15 113.5t41 125t61.5 129t74.5 123.5l340 498h205l-402 -586l5 -4q61 47 180 47q152 0 241 -95t89 -255q0 -102 -40 -196.5t-106.5 -167t-154 -115.5t-181.5 -43q-174 0 -271 113.5t-97 312.5zM293 387q0 -102 52 -166.5t138 -64.5q57 0 110.5 26.5 t94.5 72.5t65.5 106.5t24.5 127.5q0 88 -52 143.5t-136 55.5q-61 0 -114.5 -24.5t-94.5 -65.5t-64.5 -95.5t-23.5 -115.5z" />
<glyph unicode="7" horiz-adv-x="1067" d="M238 -18l573 1243h-563l24 172h809l-653 -1415h-190z" />
<glyph unicode="8" horiz-adv-x="1067" d="M82 369q0 141 78 241.5t221 141.5q-86 53 -122 115.5t-36 158.5q0 80 33 150.5t88 124t129 84t156 30.5q86 0 155.5 -25.5t119.5 -72.5t77 -112.5t27 -147.5q0 -113 -63.5 -200t-174.5 -128q96 -41 140 -113.5t44 -183.5q0 -94 -36.5 -177t-101 -143.5t-151.5 -95 t-190 -34.5q-88 0 -160.5 27.5t-124 78.5t-80 123t-28.5 158zM264 367q0 -96 62.5 -158t160.5 -62q59 0 110.5 23t90.5 60.5t61.5 89t22.5 108.5q0 104 -60.5 163.5t-170.5 59.5q-55 0 -105.5 -23.5t-88.5 -62.5t-60.5 -90t-22.5 -108zM406 1014q0 -88 52 -142.5t138 -54.5 q47 0 89 19.5t72.5 51.5t49 75t18.5 92q0 86 -52 140t-138 54q-47 0 -89 -18.5t-73 -51t-49 -74.5t-18 -91z" />
<glyph unicode="9" horiz-adv-x="1067" d="M160 870q0 111 39 210.5t106.5 173t156.5 117.5t187 44q80 0 146.5 -30.5t114.5 -84t75 -128t27 -164.5q0 -55 -8.5 -110.5t-31 -118t-60.5 -135.5t-99 -161l-344 -501h-205l414 602l-4 4q-47 -27 -87 -38t-91 -11q-74 0 -135.5 24.5t-106.5 68.5t-69.5 105t-24.5 133z M348 903q0 -96 49 -147t144 -51q55 0 105 24.5t90 66.5t63.5 95t23.5 108q0 109 -51 172.5t-139 63.5q-57 0 -108.5 -26.5t-90.5 -72.5t-62.5 -106.5t-23.5 -126.5z" />
<glyph unicode=":" horiz-adv-x="405" d="M33 90q0 49 34.5 84t84.5 35q49 0 83.5 -35t34.5 -84t-34.5 -84t-83.5 -35t-84 35t-35 84zM147 829q0 49 35 84t84 35t84 -34.5t35 -84.5q0 -49 -35 -83.5t-84 -34.5t-84 34.5t-35 83.5z" />
<glyph unicode=";" horiz-adv-x="405" d="M-20 -295l12 90q135 45 135 176q-80 35 -80 105q0 53 36 87t93 34q55 0 92 -46.5t37 -115.5q0 -59 -23.5 -111.5t-66.5 -95.5t-102 -75t-133 -48zM147 829q0 49 35 84t84 35t84 -34.5t35 -84.5q0 -49 -35 -83.5t-84 -34.5t-84 34.5t-35 83.5z" />
<glyph unicode="&#x37e;" horiz-adv-x="405" d="M-20 -295l12 90q135 45 135 176q-80 35 -80 105q0 53 36 87t93 34q55 0 92 -46.5t37 -115.5q0 -59 -23.5 -111.5t-66.5 -95.5t-102 -75t-133 -48zM147 829q0 49 35 84t84 35t84 -34.5t35 -84.5q0 -49 -35 -83.5t-84 -34.5t-84 34.5t-35 83.5z" />
<glyph unicode="&#x3c;" horiz-adv-x="1196" d="M143 641v168l971 414v-179l-770 -319l770 -319v-179z" />
<glyph unicode="=" horiz-adv-x="1196" d="M145 416v168h967v-168h-967zM145 862v168h967v-168h-967z" />
<glyph unicode="&#x3e;" horiz-adv-x="1196" d="M143 227v179l770 319l-770 319v179l971 -414v-168z" />
<glyph unicode="?" horiz-adv-x="724" d="M123 90q0 49 35 84t84 35t83.5 -35t34.5 -84t-34.5 -84t-83.5 -35t-84 35t-35 84zM180 1135l29 202q66 41 118 59.5t111 18.5q135 0 217 -86t82 -229q0 -74 -27.5 -133.5t-69.5 -111.5t-92 -104.5t-96 -111.5t-82 -132t-48 -167h-113q0 109 25.5 193.5t64.5 153.5t85 123 t85 102.5t64.5 92.5t25.5 91q0 68 -40 110.5t-111 42.5q-47 0 -108 -29.5t-120 -84.5z" />
<glyph unicode="@" horiz-adv-x="2068" d="M111 469q0 109 23.5 226.5t72.5 231t128 216t188.5 180.5t253 124t323.5 46q186 0 344 -58.5t271.5 -162t178 -246.5t64.5 -313q0 -137 -50 -266.5t-134 -229.5t-191.5 -160.5t-222.5 -60.5q-199 0 -199 168q-68 -78 -147.5 -122t-155.5 -44q-80 0 -146.5 34t-115.5 94 t-76.5 143t-27.5 182q0 121 44 234.5t117.5 201.5t166.5 142t192 54q92 0 170 -47t131 -137l35 156h180l-168 -772q-12 -55 3 -89t62 -34q31 0 94.5 34.5t128 103.5t112.5 173t48 244q0 135 -54 251.5t-149.5 200.5t-227.5 132.5t-285 48.5q-180 0 -333 -64.5t-263.5 -180.5 t-173 -273.5t-62.5 -344.5q0 -182 58.5 -324.5t169 -240.5t271.5 -150.5t365 -52.5q258 0 433.5 86t267.5 215h184q-135 -221 -354 -334.5t-533 -113.5q-236 0 -423 61.5t-318 178t-200.5 283.5t-69.5 376zM680 436q0 -131 60.5 -212t158.5 -81q68 0 131.5 43t113.5 114 t80.5 162t30.5 185q0 135 -62.5 214t-168.5 79q-66 0 -128 -43t-110.5 -113.5t-77 -161t-28.5 -186.5z" />
<glyph unicode="A" horiz-adv-x="1067" d="M-72 0l617 1405h176l272 -1405h-172l-84 438h-438l-184 -438h-187zM360 586h349l-107 573h-4z" />
<glyph unicode="B" horiz-adv-x="1044" d="M80 0l194 1397h205q121 0 206 -29t137 -78t76 -112.5t24 -135.5q0 -90 -48.5 -159.5t-144.5 -116.5q289 -100 289 -375q0 -88 -38 -160.5t-104.5 -124t-158.5 -79t-203 -27.5h-434zM285 156h211q160 0 246.5 62.5t86.5 180.5q0 61 -27.5 113.5t-73.5 89.5t-106.5 58.5 t-127.5 21.5h-136zM381 838h100q117 0 184.5 57t67.5 152q0 98 -68 151q-54 42 -165 42q-30 0 -64 -3z" />
<glyph unicode="C" horiz-adv-x="1130" d="M100 563q0 182 65.5 339t188.5 270.5t300 178t401 64.5h133l-37 -176h-102q-217 0 -361.5 -66.5t-230.5 -166t-122 -215t-36 -216.5q0 -94 25.5 -171.5t73.5 -132t116 -84t152 -29.5q45 0 98 12t108.5 35.5t109.5 55.5t101 69l-30 -226q-104 -59 -211 -90.5t-203 -31.5 q-119 0 -218 43t-170 119.5t-111 183t-40 235.5z" />
<glyph unicode="D" horiz-adv-x="1343" d="M80 0l199 1397h165q207 0 371 -55.5t272 -167.5q176 -182 177 -478q0 -135 -40 -261t-128 -223t-226.5 -154.5t-334.5 -57.5h-455zM293 166h168q98 0 167.5 8t123 24.5t93.5 42t77 60.5q59 57 101 161.5t42 239.5q0 147 -56.5 248t-140.5 162.5t-181 89t-181 27.5h-64z " />
<glyph unicode="E" horiz-adv-x="1044" d="M78 0l203 1397h739l-23 -166h-559l-61 -438h493l-22 -166h-496l-67 -461h735l-25 -166h-917z" />
<glyph unicode="F" horiz-adv-x="854" d="M63 0l203 1397h666l-23 -166h-485l-62 -438h447l-25 -166h-446l-88 -627h-187z" />
<glyph unicode="G" horiz-adv-x="1236" d="M72 596q0 82 20.5 173t65.5 182t118.5 175t180 148.5t249 102.5t324.5 38q41 0 96.5 -4t145.5 -14l-23 -168q-49 6 -85 9t-63.5 5t-51 3t-48.5 1q-201 0 -340 -63.5t-226 -158.5t-126 -209t-39 -214t30 -183t83 -143.5t128 -93t163 -32.5q59 0 132 17t136 50l33 242h-199 l21 147h385l-72 -502q-102 -53 -206.5 -87.5t-244.5 -34.5q-147 0 -257.5 52t-184.5 138t-109.5 196.5t-35.5 227.5z" />
<glyph unicode="H" horiz-adv-x="1429" d="M72 0l196 1397h191l-84 -604h755l84 604h193l-197 -1397h-192l88 618h-756l-86 -618h-192z" />
<glyph unicode="I" horiz-adv-x="491" d="M80 0l196 1397h193l-197 -1397h-192z" />
<glyph unicode="J" horiz-adv-x="491" d="M-272 -287q43 -10 73.5 -13t61.5 -3q100 0 151.5 48t67.5 165l209 1487h184l-211 -1499q-25 -176 -111.5 -272.5t-248.5 -96.5q-66 0 -133 12z" />
<glyph unicode="K" horiz-adv-x="1153" d="M70 0l196 1397h189l-93 -598l5 -4l594 602h213l-644 -645l625 -752h-219l-576 731l-102 -731h-188z" />
<glyph unicode="L" horiz-adv-x="854" d="M72 0l196 1397h185l-183 -1241h574l-23 -156h-749z" />
<glyph unicode="M" horiz-adv-x="1665" d="M-2 0l461 1397h159l218 -946l501 946h185v-1397h-185v1059h-4l-561 -1059l-242 1069h-4l-344 -1069h-184z" />
<glyph unicode="N" horiz-adv-x="1409" d="M80 0l196 1397h95l698 -1028l145 1028h175l-197 -1397h-100l-695 1020l-143 -1020h-174z" />
<glyph unicode="O" horiz-adv-x="1343" d="M104 571q0 137 43 287t128 273.5t212 203.5t295 80q111 0 202 -43t155.5 -119.5t100.5 -184t36 -239.5q0 -188 -55.5 -343.5t-147.5 -268.5t-214 -174t-257 -61q-111 0 -202 43t-156.5 121.5t-102.5 187t-37 237.5zM293 545q0 -186 85 -290.5t228 -104.5q98 0 185.5 55 t153 152.5t104 227.5t38.5 277q0 186 -83.5 285.5t-223.5 99.5q-123 0 -215 -67.5t-152.5 -171t-90 -227t-29.5 -236.5z" />
<glyph unicode="P" horiz-adv-x="917" d="M55 0l197 1397h240q82 0 162.5 -17.5t145 -61.5t104.5 -121t40 -196q0 -57 -22.5 -128.5t-74.5 -135t-137 -105.5t-212 -42h-168l-82 -590h-193zM354 756h135q72 0 123.5 22.5t83 59t46 82t14.5 88.5t-13.5 82.5t-44 70.5t-79 50.5t-117.5 19.5h-82z" />
<glyph unicode="Q" horiz-adv-x="1343" d="M104 596q0 127 43 271.5t127 266t210 201.5t292 80q117 0 209 -40t156.5 -115.5t99.5 -185t35 -247.5q0 -158 -40 -296t-113.5 -245.5t-177 -181t-230.5 -104.5q35 -113 116.5 -172t178.5 -59q33 0 70.5 10t74.5 34.5t69.5 62.5t51.5 93h31q-2 -66 -22.5 -131 t-60.5 -118.5t-102.5 -86t-150.5 -32.5q-68 0 -135.5 21.5t-129 68.5t-112.5 122.5t-86 186.5q-193 39 -298.5 197.5t-105.5 398.5zM293 551q0 -195 86 -289t239 -94q96 0 181.5 52t149 144.5t101 217.5t37.5 270q0 195 -81.5 295t-223.5 100q-88 0 -159.5 -34.5t-126 -92 t-93 -131.5t-63.5 -150.5t-36 -152.5t-11 -135z" />
<glyph unicode="R" horiz-adv-x="1087" d="M74 0l196 1397h252q135 0 218 -22.5t143 -76.5q115 -104 114 -280q0 -127 -76.5 -217t-209.5 -125q33 -20 63.5 -62.5t52.5 -91.5l250 -522h-200l-160 332q-43 90 -76 145t-64.5 86t-67.5 42t-83 11h-74l-86 -616h-192zM377 782h98q96 0 158.5 22.5t99.5 58.5t51.5 79 t14.5 86q0 98 -63.5 150.5t-188.5 52.5h-109z" />
<glyph unicode="S" horiz-adv-x="937" d="M102 82l29 205q111 -78 187.5 -105.5t140.5 -27.5q27 0 62.5 10t67.5 31.5t54.5 55.5t22.5 83q0 61 -35 112.5t-88.5 98.5t-113.5 95t-113.5 105.5t-88 127t-34.5 161.5q0 86 37.5 157t101 120t144.5 76.5t167 27.5q43 0 113.5 -12t142.5 -43l-27 -191q-66 41 -123 57.5 t-122 16.5q-113 0 -179.5 -57.5t-66.5 -153.5q0 -55 35 -103t88 -93t113.5 -93.5t113.5 -104.5t88 -127t35 -161q0 -66 -25.5 -131t-77 -118.5t-129 -86t-182.5 -32.5q-70 0 -158 23.5t-180 76.5z" />
<glyph unicode="T" horiz-adv-x="1044" d="M137 1223l25 174h979l-25 -174h-393l-172 -1223h-193l172 1223h-393z" />
<glyph unicode="U" horiz-adv-x="1300" d="M129 498l127 899h184l-129 -914q-5 -31 -4 -60q0 -47 12 -86q20 -62 62.5 -104.5t103 -62.5t127.5 -20q74 0 144.5 25.5t124.5 78.5q53 53 77.5 133t40.5 207l113 803h193l-121 -862q-41 -287 -193.5 -420t-388.5 -133q-119 0 -214 36.5t-158.5 104t-90.5 163.5 q-16 59 -16 126q0 42 6 86z" />
<glyph unicode="V" horiz-adv-x="1044" d="M131 1397h180l183 -975h4l467 975h192l-682 -1409h-72z" />
<glyph unicode="W" horiz-adv-x="1898" d="M123 1397h176l227 -989h4l471 989h72l273 -1006l479 1006h194l-676 -1409h-71l-271 991l-475 -991h-73z" />
<glyph unicode="X" horiz-adv-x="1366" d="M-37 0l649 739l-413 658h211l331 -514l455 514h244l-598 -678l454 -719h-219l-362 575l-500 -575h-252z" />
<glyph unicode="Y" horiz-adv-x="1003" d="M139 1397h195l237 -512l357 512h213l-490 -701l-98 -696h-184l98 696z" />
<glyph unicode="Z" horiz-adv-x="1193" d="M-66 0l1014 1223h-794l24 174h1147l-1018 -1223h828l-25 -174h-1176z" />
<glyph unicode="[" horiz-adv-x="681" d="M78 -453l260 1850h432l-18 -135h-265l-221 -1579h262l-18 -136h-432z" />
<glyph unicode="\" horiz-adv-x="575" d="M27 1415h143l401 -1433h-143z" />
<glyph unicode="]" horiz-adv-x="681" d="M-98 -453l18 136h264l222 1579h-263l19 135h432l-260 -1850h-432z" />
<glyph unicode="^" d="M88 596l354 801h146l354 -801h-182l-246 598l-242 -598h-184z" />
<glyph unicode="_" horiz-adv-x="1024" d="M-12 -154h1048v-102h-1048v102z" />
<glyph unicode="`" horiz-adv-x="681" d="M205 1372h207l139 -299h-115z" />
<glyph unicode="a" d="M72 346q0 111 34.5 218.5t109.5 192.5t193.5 138t286.5 53q49 0 113.5 -8t103.5 -20l-129 -920h-174l17 106l-4 5q-53 -59 -118 -94t-130 -35q-63 0 -118.5 28.5t-96.5 77.5t-64.5 115.5t-23.5 142.5zM250 377q0 -111 51 -181.5t131 -70.5q53 0 113.5 44t101.5 97l76 531 q-29 2 -56 2q-64 0 -116 -14q-74 -19 -127 -55t-87 -85t-53.5 -98t-26.5 -94t-7 -76z" />
<glyph unicode="b" d="M61 -14l191 1411h178l-78 -547l4 -4q57 57 107.5 79.5t116.5 22.5q72 0 131 -30.5t102 -86t66.5 -133t23.5 -170.5q0 -92 -28.5 -190t-97 -180t-183.5 -134.5t-289 -52.5q-66 0 -134.5 4.5t-109.5 10.5zM250 115h96q90 0 161 30.5t119 86t73.5 132t25.5 168.5 q0 127 -53.5 196t-145.5 69q-20 0 -52 -7.5t-62.5 -21.5t-54 -36.5t-27.5 -51.5z" />
<glyph unicode="c" horiz-adv-x="788" d="M49 395q0 113 42 213.5t120 176t188.5 119.5t245.5 44q35 0 75 -4t83 -12l-23 -154q-66 14 -133 15q-96 0 -174 -33t-132 -87.5t-84 -124t-30 -142.5q0 -131 67.5 -205t184.5 -74q70 0 128.5 19.5t123.5 58.5l-20 -168q-66 -35 -125.5 -50.5t-130.5 -15.5q-92 0 -168 30 t-128.5 85t-81 134t-28.5 175z" />
<glyph unicode="d" d="M63 397q0 74 33 169.5t105.5 180t187.5 143t279 58.5h73l64 449h174l-197 -1397q-55 -16 -111.5 -22.5t-123.5 -6.5q-233 0 -358.5 109.5t-125.5 316.5zM242 401q0 -137 78.5 -211.5t226.5 -74.5h39q18 0 41 4l94 684h-45q-106 0 -187 -35t-136.5 -92.5t-83 -129 t-27.5 -145.5z" />
<glyph unicode="e" horiz-adv-x="897" d="M78 416q0 113 33.5 210t92 168.5t138.5 112.5t172 41q78 0 142.5 -33.5t108.5 -96t63 -149.5q11 -50 12 -106q0 -41 -6 -86h-574q-9 -49 -9 -91q0 -37 7 -70q14 -69 49 -112.5t85 -66t104 -22.5q129 0 299 125l-25 -166q-139 -102 -307 -103q-88 0 -159 32t-121 90.5 t-77.5 140.5t-27.5 182zM287 598h385q0 88 -40 147.5t-126 59.5q-149 0 -219 -207z" />
<glyph unicode="f" horiz-adv-x="555" d="M61 -387l148 1153h-148l23 154h145q6 104 36 194t84 157.5t134 105.5t189 38q59 0 112.5 -11t110.5 -32l-25 -172q-45 25 -92 38t-88 13q-129 0 -201.5 -85t-87.5 -246h187l-23 -154h-186l-148 -1153h-170z" />
<glyph unicode="g" horiz-adv-x="874" d="M-23 -233q0 41 21.5 70.5t58.5 52t85 38t100 25.5v4q-86 33 -123 71t-37 91q0 57 52 102t130 68q-166 78 -166 264q0 80 28 146.5t74 115.5t108.5 77t131.5 28h471l-18 -136h-178q35 -51 48 -93t13 -89q0 -117 -54 -203t-161 -131q-41 -16 -95 -25.5t-102.5 -19.5 t-82 -27.5t-33.5 -50.5q0 -29 37 -45t93 -29.5t121.5 -30.5t122 -47t93.5 -78t37 -124q0 -57 -28 -105t-78 -83t-118.5 -54.5t-150.5 -19.5q-86 0 -160 17.5t-127 49t-83 76t-30 95.5zM143 -229q0 -51 65.5 -81t182.5 -30q90 0 142.5 32t52.5 83q0 43 -61.5 77.5 t-143.5 53.5q-45 -8 -87 -21.5t-76 -31t-54.5 -38.5t-20.5 -44zM264 565q0 -82 47 -134t119 -52q43 0 77 19.5t56.5 50t34.5 68.5t12 77q0 82 -46 133t-118 51q-35 0 -67.5 -17.5t-58 -47t-41 -68.5t-15.5 -80z" />
<glyph unicode="h" d="M43 0l197 1397h174l-88 -625l4 -4q156 180 319 180q61 0 105.5 -25.5t71 -69.5t34.5 -102q4 -26 4 -54q0 -34 -6 -70l-88 -627h-174l88 637q4 26 4 48q0 54 -21 86q-30 46 -87 46q-63 0 -138 -63.5t-141 -155.5l-84 -598h-174z" />
<glyph unicode="i" horiz-adv-x="385" d="M47 0l129 920h174l-129 -920h-174zM195 1208q0 41 29.5 71t70.5 30t70.5 -30t29.5 -71t-29.5 -70.5t-70.5 -29.5t-70.5 29.5t-29.5 70.5z" />
<glyph unicode="j" horiz-adv-x="385" d="M-211 -453l23 154q41 -9 74 -9q48 0 81 18q57 32 74 153l135 1057h174l-141 -1106q-10 -78 -40 -132.5t-73 -88t-96 -49t-109 -15.5q-25 0 -52 4t-50 14zM193 1208q0 41 29.5 71t70.5 30t70.5 -30t29.5 -71t-29.5 -70.5t-70.5 -29.5t-70.5 29.5t-29.5 70.5z" />
<glyph unicode="k" horiz-adv-x="937" d="M49 0l195 1397h174l-125 -873l4 -4l385 400h221l-422 -435l451 -485h-221l-424 467l-66 -467h-172z" />
<glyph unicode="l" horiz-adv-x="385" d="M47 0l197 1397h174l-197 -1397h-174z" />
<glyph unicode="m" horiz-adv-x="1515" d="M45 0l131 920h174l-24 -160l4 -4q86 96 162.5 137t154.5 41q29 0 61.5 -8t62.5 -32t53.5 -63.5t31.5 -103.5q100 123 188.5 165t155.5 42q49 0 93 -19.5t75 -60.5t43 -104q6 -32 6 -70.5t-6 -83.5l-84 -596h-174l86 604q5 33 5 61q0 49 -16 81q-26 50 -83 51 q-23 0 -53.5 -9.5t-66.5 -34t-79 -65.5t-90 -104l-84 -584h-174l82 582q7 42 7 77q0 48 -13 80q-23 57 -96 58q-51 0 -128 -57.5t-149 -155.5l-82 -584h-174z" />
<glyph unicode="n" d="M61 0l129 920h175l-23 -162l4 -4q147 180 305 180q74 0 120 -34t71.5 -86t31.5 -115q2 -23 3 -46q0 -38 -7 -73l-88 -580h-172l84 586q4 32 5 58q0 23 -4 41q-7 40 -22.5 63.5t-37 33t-41.5 9.5q-18 0 -45 -8.5t-62.5 -31t-77.5 -62.5t-92 -103l-84 -586h-172z" />
<glyph unicode="o" horiz-adv-x="917" d="M74 383q0 121 33.5 224.5t93 179t139.5 118.5t174 43q158 0 250 -109.5t92 -291.5q0 -129 -34 -235.5t-93 -181.5t-139 -117t-170 -42q-164 0 -255 108.5t-91 303.5zM252 365q0 -111 47 -177.5t115 -66.5q55 0 103 32.5t84 90t56.5 138.5t20.5 175q0 117 -44 185.5 t-120 68.5q-55 0 -103.5 -37t-84 -98.5t-55 -142t-19.5 -168.5z" />
<glyph unicode="p" horiz-adv-x="1003" d="M27 -471l163 1163q-35 -25 -60.5 -54.5t-43.5 -55t-30.5 -42t-18.5 -16.5q-8 0 -8 13q0 25 14 60.5t38.5 74.5t57.5 77.5t68 65.5l47 338h174l-33 -233q20 8 39 13t37 9q37 6 80 6q82 0 151.5 -32.5t120.5 -89t80 -135.5t29 -171q0 -86 -31 -183t-97.5 -178t-172 -134.5 t-254.5 -53.5h-115l-61 -442h-174zM283 119h84q100 0 172.5 38t121 96t71 129t22.5 138q0 78 -22.5 134.5t-59.5 92t-84 53t-96 17.5q-35 0 -56.5 -5t-58.5 -21z" />
<glyph unicode="q" d="M63 385q0 96 34 196.5t111 181.5t202 133t305 52h194l-198 -1419h-174l69 498q-113 -55 -190 -56q-80 0 -144.5 30t-110.5 85t-72 131t-26 168zM242 375q0 -119 64.5 -189.5t174.5 -70.5q29 0 61.5 9t82.5 32l90 649q-20 1 -39 1q-93 0 -166 -25q-88 -30 -148.5 -88 t-90 -140t-29.5 -178z" />
<glyph unicode="r" horiz-adv-x="641" d="M76 0l129 920h174l-27 -175l4 -4q41 59 72 96t58.5 59t54 30t59.5 8q20 0 36.5 -2t39.5 -12v-197q-31 16 -54.5 23.5t-52.5 7.5q-33 0 -62.5 -11.5t-59 -39t-59.5 -72.5t-66 -113l-72 -518h-174z" />
<glyph unicode="s" horiz-adv-x="724" d="M23 92l30 168q92 -72 160 -104.5t123 -32.5q53 0 86 28.5t33 73.5q0 39 -27 71t-66.5 61.5t-87 61.5t-87.5 69.5t-66.5 86t-26.5 109.5q0 119 78 191.5t211 72.5q72 0 142.5 -25.5t136.5 -70.5v-182q-158 121 -277 121q-53 0 -89 -28t-36 -69q0 -33 27.5 -61.5t67.5 -57 t88.5 -59.5t88 -69.5t67.5 -88t28 -112.5q0 -61 -21.5 -112.5t-60.5 -87.5t-90.5 -55.5t-112.5 -19.5q-43 0 -80 6.5t-73.5 19.5t-76.5 36.5t-89 58.5z" />
<glyph unicode="t" horiz-adv-x="575" d="M45 784l21 136h167l35 188h172l-32 -188h176l-19 -136h-184l-88 -503q-7 -38 -7 -66q0 -36 12 -55q22 -33 85 -33q39 0 75 11.5t93 43.5l-10 -170q-55 -23 -97.5 -32t-93.5 -9q-68 0 -117 20.5t-79.5 55.5t-40.5 81q-6 26 -6 53q0 22 4 46l96 557h-162z" />
<glyph unicode="u" d="M86 313l86 607h174l-86 -607q-4 -33 -4 -58q0 -23 3 -41q7 -38 23.5 -59.5t37 -28.5t38.5 -7q51 0 117 45t160 158l84 598h174l-131 -920h-172l20 152l-4 4q-27 -29 -59.5 -58.5t-71.5 -54.5t-82 -41t-90 -16q-39 0 -82 15t-77.5 53t-52.5 102q-10 37 -10 85q0 33 5 72z " />
<glyph unicode="v" horiz-adv-x="768" d="M74 920h172l121 -584h4l295 584h176l-473 -938h-86z" />
<glyph unicode="w" horiz-adv-x="1259" d="M66 920h170l110 -619h4l299 619h86l115 -619h4l301 619h170l-473 -938h-82l-119 602h-4l-311 -602h-80z" />
<glyph unicode="x" horiz-adv-x="874" d="M-63 0l401 487l-217 433h186l146 -310l239 310h215l-370 -455l233 -465h-186l-168 344l-266 -344h-213z" />
<glyph unicode="y" horiz-adv-x="768" d="M-25 -471l250 526l-178 865h174l123 -633h4l289 633h182l-659 -1391h-185z" />
<glyph unicode="z" horiz-adv-x="937" d="M-27 0l600 766h-464l20 154h786l-610 -766h535l-33 -154h-834z" />
<glyph unicode="{" horiz-adv-x="681" d="M57 449v163q63 0 103.5 22.5t64 65.5t31.5 105.5t8 140.5v180q0 178 63.5 271.5t227.5 93.5h80v-156h-31q-53 0 -87 -8t-53.5 -31.5t-26.5 -63.5t-7 -104v-147q0 -104 -10 -178t-35 -126t-64.5 -87t-97.5 -60q57 -25 97 -59.5t65 -86.5t35 -126t10 -178v-148 q0 -63 7 -103t26.5 -63.5t53.5 -31.5t87 -8h31v-156h-80q-164 0 -227.5 93t-63.5 271v181q0 78 -8 140t-31.5 105t-64 66t-103.5 23z" />
<glyph unicode="|" horiz-adv-x="532" d="M221 -512v2048h156v-2048h-156z" />
<glyph unicode="}" horiz-adv-x="681" d="M47 -274h31q53 0 87 8t53.5 31.5t26.5 63.5t7 103v148q0 104 10 178t35 126t64.5 87t97.5 59q-57 25 -97 60t-65 87t-35 126t-10 178v147q0 63 -7 103.5t-26.5 64t-53.5 31.5t-87 8h-31v156h80q164 0 227.5 -93t63.5 -272v-180q0 -78 9 -140.5t31.5 -105.5t62.5 -65.5 t104 -22.5v-163q-63 0 -103.5 -23t-63 -66t-31.5 -105t-9 -140v-181q0 -178 -63.5 -271t-227.5 -93h-80v156z" />
<glyph unicode="~" horiz-adv-x="1196" d="M80 406v169q66 55 143.5 93.5t161.5 38.5q63 0 128 -25t130 -53q66 -29 127 -53.5t119 -24.5q68 0 144.5 42t142.5 95v-170q-63 -53 -141.5 -92t-157.5 -39q-59 0 -125 24.5t-131 53.5q-66 29 -129.5 53.5t-120.5 24.5q-76 0 -146.5 -40t-144.5 -97z" />
<glyph unicode="&#xa1;" horiz-adv-x="512" d="M47 -350q0 39 17.5 130t46 218t64.5 282.5t71 323.5h76q-12 -109 -21.5 -224.5t-15.5 -228t-11.5 -214t-9.5 -181.5q-8 -123 -36.5 -175t-98.5 -52q-41 0 -61.5 32t-20.5 89zM190 854q0 49 35 84t84 35t84 -35t35 -84t-35 -84t-84 -35t-84 35t-35 84z" />
<glyph unicode="&#xa2;" horiz-adv-x="788" d="M57 406q0 111 42 207t116 168.5t175.5 115.5t219.5 47l109 361h100l-112 -361l49 -6q33 -4 51 -8l-23 -152q-23 4 -61.5 9.5t-67.5 5.5l-204 -666q78 -8 154.5 18.5t137.5 75.5l-26 -184q-27 -18 -68 -33.5t-85 -24t-87 -9.5t-74 12l-114 -367h-94l118 385 q-256 95 -256 406zM236 406q0 -94 30.5 -153.5t95.5 -100.5l197 632q-147 -31 -235 -133t-88 -245z" />
<glyph unicode="&#xa3;" d="M74 -16l215 618h-180l49 166h182q59 174 122.5 297t133.5 200.5t146.5 113.5t162.5 36q33 0 61.5 -5t69.5 -19l-24 -172q-31 12 -56.5 17t-48.5 5q-111 0 -201 -112.5t-176 -360.5h224l-49 -166h-226l-139 -409q20 2 31.5 3t25.5 1q39 0 74 -5.5t71 -12.5t74.5 -12 t88.5 -5q63 0 119.5 14t111.5 41l-27 -190q-96 -45 -227 -45q-78 0 -168 17t-195 17q-66 0 -127 -8t-108 -24h-10z" />
<glyph unicode="&#xa4;" horiz-adv-x="1130" d="M106 326l138 137q-29 41 -50.5 103.5t-21.5 131.5q0 72 21.5 133.5t50.5 102.5l-138 137l117 117l137 -137q39 29 102.5 50t133.5 21q68 0 127 -19.5t108 -51.5l138 137l116 -117l-137 -137q18 -25 31.5 -56.5t23 -63.5t13.5 -61.5t4 -54.5q0 -61 -20.5 -126.5 t-51.5 -108.5l137 -137l-116 -117l-138 137q-45 -31 -105 -51.5t-130 -20.5q-74 0 -133.5 21.5t-102.5 50.5l-137 -137zM336 698q0 -53 20.5 -100t56.5 -83t83 -56.5t100 -20.5t101 20.5t83 56.5t55.5 83t20.5 100t-20.5 101.5t-55.5 83.5t-83 55t-101 20t-100 -20t-83 -55 t-56.5 -83.5t-20.5 -101.5z" />
<glyph unicode="&#xa5;" horiz-adv-x="1130" d="M27 328l30 135h404l31 151h-408l29 136h342l-273 716h183l237 -694h12l476 694h225l-541 -716h334l-29 -136h-405l-33 -151h408l-29 -135h-406l-69 -328h-180l67 328h-405z" />
<glyph unicode="&#xa6;" horiz-adv-x="532" d="M188 358h156v-716h-156v716zM188 666v716h156v-716h-156z" />
<glyph unicode="&#xa7;" horiz-adv-x="1003" d="M51 -178l158 88q-16 -109 27 -173.5t147 -64.5q78 0 133 42t55 116q0 55 -34.5 105.5t-88 99.5t-114 99t-113.5 106.5t-88 122t-35 143.5q0 59 22.5 113.5t62.5 98.5t96.5 75.5t123.5 46.5q-57 61 -83.5 115.5t-26.5 125.5q0 74 28.5 135.5t80 105.5t123 68.5t157.5 24.5 q72 0 127 -23.5t89 -64.5t46 -95t0 -118l-164 -59q12 23 17.5 41t5.5 43q0 59 -38 96t-97 37q-78 0 -135.5 -47t-57.5 -123q0 -53 33 -99.5t83 -91.5t107.5 -91t107.5 -102t83 -125t33 -159q0 -104 -77 -197.5t-200 -142.5q59 -76 82 -132t23 -116q0 -70 -27 -128t-76 -100 t-116.5 -65.5t-147.5 -23.5q-57 0 -117.5 14.5t-108.5 48t-78 90t-28 140.5zM276 512q0 -43 23 -80t58.5 -73.5t78.5 -72.5t84 -77q104 25 163.5 84t59.5 129q0 68 -52 141.5t-150 153.5q-117 -4 -191 -60.5t-74 -144.5z" />
<glyph unicode="&#xa8;" horiz-adv-x="681" d="M172 1214q0 39 27.5 67t66.5 28t66.5 -28t27.5 -67t-27.5 -66.5t-66.5 -27.5t-66.5 27.5t-27.5 66.5zM539 1214q0 39 27.5 67t66.5 28t66.5 -28t27.5 -67t-27.5 -66.5t-66.5 -27.5t-66.5 27.5t-27.5 66.5z" />
<glyph unicode="&#xa9;" horiz-adv-x="1515" d="M2 737q0 158 59.5 295t161 238.5t239.5 161t294 59.5q158 0 295 -59.5t239.5 -161t161.5 -238.5t59 -295q0 -156 -59 -294t-161.5 -240.5t-240 -161.5t-294.5 -59q-156 0 -294 59t-239.5 161.5t-161 240.5t-59.5 294zM127 737q0 -131 49 -245.5t134 -200.5t200 -135.5 t246 -49.5t245.5 49.5t200.5 135.5t135 200.5t49 245.5t-49 246t-135 200t-200.5 134t-245.5 49t-246 -49t-200 -134t-134 -200t-49 -246zM362 748q0 94 29 169.5t82 130t127 83t166 28.5q131 0 219 -60.5t123 -174.5l-119 -29q-61 154 -233 154q-117 0 -186.5 -87.5 t-69.5 -234.5q0 -143 67.5 -224t190.5 -81q88 0 153.5 52t87.5 140l123 -36q-31 -131 -128 -202t-244 -71q-88 0 -160 31t-123 88t-78 139.5t-27 184.5z" />
<glyph unicode="&#xaa;" horiz-adv-x="641" d="M106 1055q0 82 30 148.5t84 113.5t130 72.5t168 25.5q37 0 79 -5t73 -13l-86 -553h-135l6 47q-41 -29 -73 -41t-71 -12q-88 0 -146.5 62.5t-58.5 154.5zM246 1071q0 -61 28.5 -101t73.5 -40q53 0 125 80l47 305q-55 0 -105 -14.5t-88 -44t-59.5 -76t-21.5 -109.5z" />
<glyph unicode="&#xab;" horiz-adv-x="897" d="M14 459l344 461h158l-354 -482l172 -438h-139zM412 459l344 461h157l-354 -482l172 -438h-139z" />
<glyph unicode="&#xac;" horiz-adv-x="1196" d="M143 694v168h969v-604h-168v436h-801z" />
<glyph unicode="&#xad;" horiz-adv-x="512" d="M0 369l25 174h487l-25 -174h-487z" />
<glyph unicode="&#xae;" horiz-adv-x="1515" d="M2 737q0 158 59.5 295t161 238.5t239.5 161t294 59.5q158 0 295 -59.5t239.5 -161t161.5 -238.5t59 -295q0 -156 -59 -294t-161.5 -240.5t-240 -161.5t-294.5 -59q-156 0 -294 59t-239.5 161.5t-161 240.5t-59.5 294zM127 737q0 -131 49 -245.5t134 -200.5t200 -135.5 t246 -49.5t245.5 49.5t200.5 135.5t135 200.5t49 245.5t-49 246t-135 200t-200.5 134t-245.5 49t-246 -49t-200 -134t-134 -200t-49 -246zM426 319v811h358q76 0 127.5 -20t83 -52t45 -70t13.5 -70q0 -98 -63.5 -163t-168.5 -71v-4q53 -18 95 -69.5t94 -133.5l98 -158h-160 l-71 127q-39 68 -68 111t-54.5 66.5t-54 32t-65.5 8.5h-78v-345h-131zM557 776h188q76 0 122 30t46 93q0 55 -39.5 88t-105.5 33h-211v-244z" />
<glyph unicode="&#xaf;" horiz-adv-x="681" d="M96 1169l19 131h659l-18 -131h-660z" />
<glyph unicode="&#x2c9;" horiz-adv-x="681" d="M96 1169l19 131h659l-18 -131h-660z" />
<glyph unicode="&#xb0;" horiz-adv-x="811" d="M127 1214q0 57 21.5 107.5t59.5 88.5t88 59.5t107 21.5t107.5 -21.5t88.5 -59.5t59.5 -88t21.5 -108q0 -57 -21.5 -107t-59.5 -88t-88 -59.5t-108 -21.5q-57 0 -107 21.5t-88 59.5t-59.5 88t-21.5 107zM236 1214q0 -72 48 -121t119 -49q72 0 121 49.5t49 120.5 q0 72 -49 120t-121 48t-119.5 -48t-47.5 -120z" />
<glyph unicode="&#xb1;" horiz-adv-x="1196" d="M145 0v168h967v-168h-967zM145 639v168h400v399h168v-399h399v-168h-399v-399h-168v399h-400z" />
<glyph unicode="&#xb2;" horiz-adv-x="661" d="M61 680q213 221 320.5 357.5t107.5 189.5q0 84 -106 84q-43 0 -89 -16.5t-106 -55.5l19 123q53 29 99 41t97 12q94 0 153.5 -48t59.5 -124q0 -37 -15 -79t-52 -96t-97.5 -124t-152.5 -166h307l-14 -98h-531z" />
<glyph unicode="&#xb3;" horiz-adv-x="661" d="M94 713l15 100q37 -16 82 -30.5t110 -14.5q78 0 122 35t44 94q0 111 -154 111l15 92q178 18 178 125q0 41 -31 66.5t-82 25.5q-45 0 -86 -13.5t-88 -41.5l17 118q90 35 182 35q106 0 169.5 -52t63.5 -140q0 -117 -151 -170q102 -43 102 -162q0 -47 -22.5 -88t-62.5 -71 t-94 -46t-118 -16q-63 0 -115.5 13.5t-95.5 29.5z" />
<glyph unicode="&#xb4;" horiz-adv-x="681" d="M324 1073l139 299h207l-232 -299h-114z" />
<glyph unicode="&#xb5;" horiz-adv-x="1130" d="M14 -354l262 1274h175l-119 -566q-25 -121 19 -186.5t136 -65.5q113 0 174.5 68t86.5 186l116 564h174l-190 -920h-158l8 66q-25 -20 -36 -29.5t-33 -22.5q-16 -10 -52 -26.5t-104 -16.5q-63 0 -112.5 29t-86.5 82l-88 -436h-172z" />
<glyph unicode="&#x3bc;" horiz-adv-x="1130" d="M14 -354l262 1274h175l-119 -566q-25 -121 19 -186.5t136 -65.5q113 0 174.5 68t86.5 186l116 564h174l-190 -920h-158l8 66q-25 -20 -36 -29.5t-33 -22.5q-16 -10 -52 -26.5t-104 -16.5q-63 0 -112.5 29t-86.5 82l-88 -436h-172z" />
<glyph unicode="&#xb6;" horiz-adv-x="1110" d="M43 1053q0 199 122 306t349 107h633v-166h-146v-1708h-165v1708h-224v-1708h-166v1045q-190 10 -296.5 121t-106.5 295z" />
<glyph unicode="&#xb7;" horiz-adv-x="532" d="M184 709q0 51 37 86.5t88 35.5t87 -35.5t36 -86.5t-36 -88t-87 -37t-88 37t-37 88z" />
<glyph unicode="&#x2219;" horiz-adv-x="532" d="M184 709q0 51 37 86.5t88 35.5t87 -35.5t36 -86.5t-36 -88t-87 -37t-88 37t-37 88z" />
<glyph unicode="&#xb8;" horiz-adv-x="681" d="M88 -336l25 94q57 -14 86 -14q45 0 70.5 21.5t25.5 56.5q0 43 -55 72l57 120h72l-19 -49q94 -43 94 -139q0 -76 -62.5 -126t-154.5 -50q-35 0 -71.5 4t-67.5 10z" />
<glyph unicode="&#xb9;" horiz-adv-x="661" d="M276 680l134 735h133l-135 -735h-132z" />
<glyph unicode="&#xba;" horiz-adv-x="618" d="M123 1077q0 72 22.5 134.5t62.5 107.5t93 70.5t117 25.5q106 0 167.5 -66.5t61.5 -179.5q0 -74 -21.5 -137t-60.5 -108t-92 -71t-117 -26q-111 0 -172 65.5t-61 184.5zM260 1049q0 -53 26.5 -90t67.5 -37q31 0 59.5 20.5t50 54t34 80.5t12.5 99q0 78 -25.5 111.5 t-66.5 33.5q-68 0 -113 -72.5t-45 -199.5z" />
<glyph unicode="&#xbb;" horiz-adv-x="897" d="M-53 0l354 481l-172 439h139l181 -459l-345 -461h-157zM348 0l354 481l-172 439h140l180 -459l-344 -461h-158z" />
<glyph unicode="&#xbc;" horiz-adv-x="1728" d="M109 -55l1112 1470h139l-1110 -1470h-141zM272 680l134 735h133l-136 -735h-131zM834 221v47l444 469h84l-76 -428h119l-12 -88h-123l-41 -221h-129l43 221h-309zM1012 309h147l33 183l-4 4z" />
<glyph unicode="&#xbd;" horiz-adv-x="1728" d="M109 -55l1112 1470h139l-1110 -1470h-141zM272 680l134 735h133l-136 -735h-131zM909 0q213 221 320.5 357.5t107.5 189.5q0 84 -106 84q-43 0 -89 -16.5t-106 -55.5l19 123q53 29 99 41t97 12q94 0 153.5 -48t59.5 -124q0 -37 -15 -79t-52 -96t-97.5 -123.5 t-152.5 -166.5h307l-14 -98h-531z" />
<glyph unicode="&#xbe;" horiz-adv-x="1728" d="M152 713l14 100q37 -16 82 -30.5t110 -14.5q78 0 122 35t44 94q0 111 -153 111l14 92q178 18 178 125q0 41 -30.5 66.5t-81.5 25.5q-45 0 -86 -13.5t-89 -41.5l17 118q90 35 182 35q106 0 170 -52t64 -140q0 -117 -152 -170q102 -43 102 -162q0 -47 -22.5 -88t-62 -71 t-94 -46t-118.5 -16q-63 0 -115 13.5t-95 29.5zM244 -55l1112 1470h139l-1110 -1470h-141zM969 221v47l444 469h84l-76 -428h119l-12 -88h-123l-41 -221h-129l43 221h-309zM1147 309h147l33 183l-4 4z" />
<glyph unicode="&#xbf;" horiz-adv-x="724" d="M-2 -156q0 74 27.5 133.5t69.5 111.5t92.5 104.5t96.5 112t81.5 132t48.5 166.5h112q0 -109 -25.5 -193.5t-64.5 -153.5t-85 -123t-85 -102t-64.5 -92t-25.5 -92q0 -68 40 -110.5t112 -42.5q47 0 107.5 29.5t119.5 85.5l-29 -203q-66 -41 -118 -59.5t-111 -18.5 q-135 0 -217 86t-82 229zM375 854q0 49 34.5 84t84.5 35q49 0 83.5 -35t34.5 -84t-34.5 -84t-83.5 -35t-84 35t-35 84z" />
<glyph unicode="&#xc0;" horiz-adv-x="1067" d="M-72 0l617 1405h176l272 -1405h-172l-84 438h-438l-184 -438h-187zM360 586h349l-107 573h-4zM434 1818h207l139 -299h-115z" />
<glyph unicode="&#xc1;" horiz-adv-x="1067" d="M-72 0l617 1405h176l272 -1405h-172l-84 438h-438l-184 -438h-187zM360 586h349l-107 573h-4zM553 1519l139 299h207l-232 -299h-114z" />
<glyph unicode="&#xc2;" horiz-adv-x="1067" d="M-72 0l617 1405h176l272 -1405h-172l-84 438h-438l-184 -438h-187zM360 586h349l-107 573h-4zM348 1515l268 303h203l153 -303h-84l-170 203l-274 -203h-96z" />
<glyph unicode="&#xc3;" horiz-adv-x="1067" d="M-72 0l617 1405h176l272 -1405h-172l-84 438h-438l-184 -438h-187zM360 586h349l-107 573h-4zM379 1550q2 111 46 172t119 61q29 0 68 -12t79 -26.5t76.5 -26.5t63.5 -12q59 0 70 75h80q0 -45 -10.5 -87t-32 -74.5t-53 -52t-72.5 -19.5q-20 0 -58.5 12t-79 26.5t-80.5 27 t-65 12.5q-29 0 -47 -20.5t-23 -55.5h-81z" />
<glyph unicode="&#xc4;" horiz-adv-x="1067" d="M-72 0l617 1405h176l272 -1405h-172l-84 438h-438l-184 -438h-187zM360 586h349l-107 573h-4zM401 1660q0 39 27.5 67t66.5 28t66.5 -28t27.5 -67t-27.5 -66.5t-66.5 -27.5t-66.5 27.5t-27.5 66.5zM768 1660q0 39 27.5 67t66.5 28t66.5 -28t27.5 -67t-27.5 -66.5 t-66.5 -27.5t-66.5 27.5t-27.5 66.5z" />
<glyph unicode="&#xc5;" horiz-adv-x="1067" d="M-72 0l617 1405h176l272 -1405h-172l-84 438h-438l-184 -438h-187zM360 586h349l-107 573h-4zM485 1669q0 41 15.5 75.5t41 60t61.5 41t75 15.5q41 0 75.5 -15.5t60 -41t41 -60t15.5 -75.5q0 -39 -15.5 -75t-41 -61.5t-60.5 -41t-75 -15.5q-39 0 -75 15.5t-61.5 41 t-41 61.5t-15.5 75zM565 1665q0 -47 32.5 -80t80.5 -33q47 0 79.5 32.5t32.5 80.5q0 47 -32.5 79.5t-79.5 32.5t-80 -32.5t-33 -79.5z" />
<glyph unicode="&#xc6;" horiz-adv-x="1705" d="M-43 0l797 1397h886l-22 -166h-535l-61 -432h502l-23 -166h-502l-65 -467h729l-23 -166h-913l88 633h-311l-348 -633h-199zM584 780h252l65 463h-63z" />
<glyph unicode="&#xc7;" horiz-adv-x="1130" d="M100 563q0 182 65.5 339t188.5 270.5t300 178t401 64.5h133l-37 -176h-102q-217 0 -361.5 -66.5t-230.5 -166t-122 -215t-36 -216.5q0 -94 25.5 -171.5t73.5 -132t116 -84t152 -29.5q45 0 98 12t108.5 35.5t109.5 55.5t101 69l-30 -226q-104 -59 -214 -91.5t-223 -30.5 l-10 -27q94 -43 94 -139q0 -76 -62.5 -126t-154.5 -50q-35 0 -71.5 4t-67.5 10l25 94q57 -14 86 -14q45 0 70.5 21.5t25.5 56.5q0 43 -55 71l51 107q-100 16 -183 64t-141.5 123t-90.5 173t-32 213z" />
<glyph unicode="&#xc8;" horiz-adv-x="1044" d="M78 0l203 1397h739l-23 -166h-559l-61 -438h493l-22 -166h-496l-67 -461h735l-25 -166h-917zM447 1818h207l139 -299h-115z" />
<glyph unicode="&#xc9;" horiz-adv-x="1044" d="M78 0l203 1397h739l-23 -166h-559l-61 -438h493l-22 -166h-496l-67 -461h735l-25 -166h-917zM566 1519l139 299h207l-232 -299h-114z" />
<glyph unicode="&#xca;" horiz-adv-x="1044" d="M78 0l203 1397h739l-23 -166h-559l-61 -438h493l-22 -166h-496l-67 -461h735l-25 -166h-917zM361 1515l268 303h203l153 -303h-84l-170 203l-274 -203h-96z" />
<glyph unicode="&#xcb;" horiz-adv-x="1044" d="M78 0l203 1397h739l-23 -166h-559l-61 -438h493l-22 -166h-496l-67 -461h735l-25 -166h-917zM414 1660q0 39 27.5 67t66.5 28t66.5 -28t27.5 -67t-27.5 -66.5t-66.5 -27.5t-66.5 27.5t-27.5 66.5zM781 1660q0 39 27.5 67t66.5 28t66.5 -28t27.5 -67t-27.5 -66.5 t-66.5 -27.5t-66.5 27.5t-27.5 66.5z" />
<glyph unicode="&#xcc;" horiz-adv-x="491" d="M80 0l196 1397h193l-197 -1397h-192zM172 1818h207l139 -299h-115z" />
<glyph unicode="&#xcd;" horiz-adv-x="491" d="M80 0l196 1397h193l-197 -1397h-192zM291 1519l139 299h207l-232 -299h-114z" />
<glyph unicode="&#xce;" horiz-adv-x="491" d="M80 0l196 1397h193l-197 -1397h-192zM86 1515l268 303h203l153 -303h-84l-170 203l-274 -203h-96z" />
<glyph unicode="&#xcf;" horiz-adv-x="491" d="M80 0l196 1397h193l-197 -1397h-192zM139 1660q0 39 27.5 67t66.5 28t66.5 -28t27.5 -67t-27.5 -66.5t-66.5 -27.5t-66.5 27.5t-27.5 66.5zM506 1660q0 39 27.5 67t66.5 28t66.5 -28t27.5 -67t-27.5 -66.5t-66.5 -27.5t-66.5 27.5t-27.5 66.5z" />
<glyph unicode="&#xd0;" horiz-adv-x="1343" d="M6 616l25 166h159l89 615h165q207 0 374 -58.5t274 -164.5q88 -88 130 -204t42 -274q0 -137 -40 -263t-127 -222t-223.5 -153.5t-330.5 -57.5h-463l88 616h-162zM293 166h168q98 0 168.5 7t124 22.5t93.5 41t75 60.5q59 59 101 164.5t42 240.5q0 137 -43 237.5t-123 165 t-195.5 95.5t-261.5 31l-63 -449h319l-22 -166h-320z" />
<glyph unicode="&#xd1;" horiz-adv-x="1409" d="M80 0l196 1397h95l698 -1028l145 1028h175l-197 -1397h-100l-695 1020l-143 -1020h-174zM574 1550q2 111 46 172t119 61q29 0 68 -12t79 -26.5t76.5 -26.5t63.5 -12q59 0 70 75h80q0 -45 -10.5 -87t-32 -74.5t-53 -52t-72.5 -19.5q-20 0 -58.5 12t-79 26.5t-80.5 27 t-65 12.5q-29 0 -47 -20.5t-23 -55.5h-81z" />
<glyph unicode="&#xd2;" horiz-adv-x="1343" d="M104 571q0 137 43 287t128 273.5t212 203.5t295 80q111 0 202 -43t155.5 -119.5t100.5 -184t36 -239.5q0 -188 -55.5 -343.5t-147.5 -268.5t-214 -174t-257 -61q-111 0 -202 43t-156.5 121.5t-102.5 187t-37 237.5zM293 545q0 -186 85 -290.5t228 -104.5q98 0 185.5 55 t153 152.5t104 227.5t38.5 277q0 186 -83.5 285.5t-223.5 99.5q-123 0 -215 -67.5t-152.5 -171t-90 -227t-29.5 -236.5zM596 1818h207l139 -299h-115z" />
<glyph unicode="&#xd3;" horiz-adv-x="1343" d="M104 571q0 137 43 287t128 273.5t212 203.5t295 80q111 0 202 -43t155.5 -119.5t100.5 -184t36 -239.5q0 -188 -55.5 -343.5t-147.5 -268.5t-214 -174t-257 -61q-111 0 -202 43t-156.5 121.5t-102.5 187t-37 237.5zM293 545q0 -186 85 -290.5t228 -104.5q98 0 185.5 55 t153 152.5t104 227.5t38.5 277q0 186 -83.5 285.5t-223.5 99.5q-123 0 -215 -67.5t-152.5 -171t-90 -227t-29.5 -236.5zM715 1519l139 299h207l-232 -299h-114z" />
<glyph unicode="&#xd4;" horiz-adv-x="1343" d="M104 571q0 137 43 287t128 273.5t212 203.5t295 80q111 0 202 -43t155.5 -119.5t100.5 -184t36 -239.5q0 -188 -55.5 -343.5t-147.5 -268.5t-214 -174t-257 -61q-111 0 -202 43t-156.5 121.5t-102.5 187t-37 237.5zM293 545q0 -186 85 -290.5t228 -104.5q98 0 185.5 55 t153 152.5t104 227.5t38.5 277q0 186 -83.5 285.5t-223.5 99.5q-123 0 -215 -67.5t-152.5 -171t-90 -227t-29.5 -236.5zM510 1515l268 303h203l153 -303h-84l-170 203l-274 -203h-96z" />
<glyph unicode="&#xd5;" horiz-adv-x="1343" d="M104 571q0 137 43 287t128 273.5t212 203.5t295 80q111 0 202 -43t155.5 -119.5t100.5 -184t36 -239.5q0 -188 -55.5 -343.5t-147.5 -268.5t-214 -174t-257 -61q-111 0 -202 43t-156.5 121.5t-102.5 187t-37 237.5zM293 545q0 -186 85 -290.5t228 -104.5q98 0 185.5 55 t153 152.5t104 227.5t38.5 277q0 186 -83.5 285.5t-223.5 99.5q-123 0 -215 -67.5t-152.5 -171t-90 -227t-29.5 -236.5zM541 1550q2 111 46 172t119 61q29 0 68 -12t79 -26.5t76.5 -26.5t63.5 -12q59 0 70 75h80q0 -45 -10.5 -87t-32 -74.5t-53 -52t-72.5 -19.5 q-20 0 -58.5 12t-79 26.5t-80.5 27t-65 12.5q-29 0 -47 -20.5t-23 -55.5h-81z" />
<glyph unicode="&#xd6;" horiz-adv-x="1343" d="M104 571q0 137 43 287t128 273.5t212 203.5t295 80q111 0 202 -43t155.5 -119.5t100.5 -184t36 -239.5q0 -188 -55.5 -343.5t-147.5 -268.5t-214 -174t-257 -61q-111 0 -202 43t-156.5 121.5t-102.5 187t-37 237.5zM293 545q0 -186 85 -290.5t228 -104.5q98 0 185.5 55 t153 152.5t104 227.5t38.5 277q0 186 -83.5 285.5t-223.5 99.5q-123 0 -215 -67.5t-152.5 -171t-90 -227t-29.5 -236.5zM563 1660q0 39 27.5 67t66.5 28t66.5 -28t27.5 -67t-27.5 -66.5t-66.5 -27.5t-66.5 27.5t-27.5 66.5zM930 1660q0 39 27.5 67t66.5 28t66.5 -28 t27.5 -67t-27.5 -66.5t-66.5 -27.5t-66.5 27.5t-27.5 66.5z" />
<glyph unicode="&#xd7;" horiz-adv-x="1196" d="M193 410l315 315l-315 315l120 121l316 -315l313 313l121 -121l-313 -313l313 -313l-121 -121l-313 313l-316 -315z" />
<glyph unicode="&#xd8;" horiz-adv-x="1343" d="M59 0l154 184q-49 72 -79 172.5t-30 214.5q0 137 43 287t128 273.5t212 203.5t295 80q111 0 193 -38t147 -103l133 160l78 -93l-139 -165q47 -78 64.5 -165t17.5 -182q0 -188 -55.5 -343.5t-147.5 -268.5t-214 -174t-257 -61q-90 0 -171 31.5t-140 84.5l-154 -182z M293 545q0 -59 11 -112.5t30 -102.5l676 809q-41 59 -100.5 83.5t-129.5 24.5q-123 0 -215 -67.5t-152.5 -171t-90 -227t-29.5 -236.5zM399 229q33 -35 84.5 -57t122.5 -22q98 0 185.5 55t153 152.5t104 227.5t38.5 277q0 70 -7 103.5t-13 58.5z" />
<glyph unicode="&#xd9;" horiz-adv-x="1300" d="M129 498l127 899h184l-129 -914q-5 -31 -4 -60q0 -47 12 -86q20 -62 62.5 -104.5t103 -62.5t127.5 -20q74 0 144.5 25.5t124.5 78.5q53 53 77.5 133t40.5 207l113 803h193l-121 -862q-41 -287 -193.5 -420t-388.5 -133q-119 0 -214 36.5t-158.5 104t-90.5 163.5 q-16 59 -16 126q0 42 6 86zM574 1818h207l139 -299h-115z" />
<glyph unicode="&#xda;" horiz-adv-x="1300" d="M129 498l127 899h184l-129 -914q-5 -31 -4 -60q0 -47 12 -86q20 -62 62.5 -104.5t103 -62.5t127.5 -20q74 0 144.5 25.5t124.5 78.5q53 53 77.5 133t40.5 207l113 803h193l-121 -862q-41 -287 -193.5 -420t-388.5 -133q-119 0 -214 36.5t-158.5 104t-90.5 163.5 q-16 59 -16 126q0 42 6 86zM693 1519l139 299h207l-232 -299h-114z" />
<glyph unicode="&#xdb;" horiz-adv-x="1300" d="M129 498l127 899h184l-129 -914q-5 -31 -4 -60q0 -47 12 -86q20 -62 62.5 -104.5t103 -62.5t127.5 -20q74 0 144.5 25.5t124.5 78.5q53 53 77.5 133t40.5 207l113 803h193l-121 -862q-41 -287 -193.5 -420t-388.5 -133q-119 0 -214 36.5t-158.5 104t-90.5 163.5 q-16 59 -16 126q0 42 6 86zM488 1515l268 303h203l153 -303h-84l-170 203l-274 -203h-96z" />
<glyph unicode="&#xdc;" horiz-adv-x="1300" d="M129 498l127 899h184l-129 -914q-5 -31 -4 -60q0 -47 12 -86q20 -62 62.5 -104.5t103 -62.5t127.5 -20q74 0 144.5 25.5t124.5 78.5q53 53 77.5 133t40.5 207l113 803h193l-121 -862q-41 -287 -193.5 -420t-388.5 -133q-119 0 -214 36.5t-158.5 104t-90.5 163.5 q-16 59 -16 126q0 42 6 86zM541 1660q0 39 27.5 67t66.5 28t66.5 -28t27.5 -67t-27.5 -66.5t-66.5 -27.5t-66.5 27.5t-27.5 66.5zM908 1660q0 39 27.5 67t66.5 28t66.5 -28t27.5 -67t-27.5 -66.5t-66.5 -27.5t-66.5 27.5t-27.5 66.5z" />
<glyph unicode="&#xdd;" horiz-adv-x="1003" d="M139 1397h195l237 -512l357 512h213l-490 -701l-98 -696h-184l98 696zM545 1519l139 299h207l-232 -299h-114z" />
<glyph unicode="&#xde;" horiz-adv-x="917" d="M55 0l197 1397h190l-41 -295h50q80 0 160.5 -17.5t145 -61.5t105.5 -121t41 -195q0 -57 -22.5 -129t-74.5 -135.5t-137 -105.5t-212 -42h-168l-41 -295h-193zM313 461h136q72 0 123 22.5t83.5 59.5t47 82t14.5 88t-13.5 83t-44 70.5t-80 50t-118.5 19.5h-82z" />
<glyph unicode="&#xdf;" horiz-adv-x="1024" d="M84 0l129 920q72 496 412 495q74 0 136 -24.5t107 -68.5t71 -104.5t26 -134.5q0 -104 -62.5 -186t-165.5 -106v-5q53 -20 89 -59t57.5 -84t32 -93t10.5 -91q0 -100 -32 -188.5t-86 -155t-127 -105.5t-155 -39q-66 0 -108 29l18 131q33 -8 70 -8q55 0 100 25.5t78 71.5 t50.5 110.5t17.5 142.5q0 248 -230 272l17 119q61 -6 111 9.5t86 46t54.5 72.5t18.5 89q0 92 -50 147.5t-130 55.5q-104 0 -158.5 -79t-81.5 -265l-131 -940h-174z" />
<glyph unicode="&#xe0;" d="M72 346q0 111 34.5 218.5t109.5 192.5t193.5 138t286.5 53q49 0 113.5 -8t103.5 -20l-129 -920h-174l17 106l-4 5q-53 -59 -118 -94t-130 -35q-63 0 -118.5 28.5t-96.5 77.5t-64.5 115.5t-23.5 142.5zM250 377q0 -111 51 -181.5t131 -70.5q53 0 113.5 44t101.5 97l76 531 q-29 2 -56 2q-64 0 -116 -14q-74 -19 -127 -55t-87 -85t-53.5 -98t-26.5 -94t-7 -76zM385 1372h207l139 -299h-115z" />
<glyph unicode="&#xe1;" d="M72 346q0 111 34.5 218.5t109.5 192.5t193.5 138t286.5 53q49 0 113.5 -8t103.5 -20l-129 -920h-174l17 106l-4 5q-53 -59 -118 -94t-130 -35q-63 0 -118.5 28.5t-96.5 77.5t-64.5 115.5t-23.5 142.5zM250 377q0 -111 51 -181.5t131 -70.5q53 0 113.5 44t101.5 97l76 531 q-29 2 -56 2q-64 0 -116 -14q-74 -19 -127 -55t-87 -85t-53.5 -98t-26.5 -94t-7 -76zM463 1073l139 299h207l-232 -299h-114z" />
<glyph unicode="&#xe2;" d="M72 346q0 111 34.5 218.5t109.5 192.5t193.5 138t286.5 53q49 0 113.5 -8t103.5 -20l-129 -920h-174l17 106l-4 5q-53 -59 -118 -94t-130 -35q-63 0 -118.5 28.5t-96.5 77.5t-64.5 115.5t-23.5 142.5zM250 377q0 -111 51 -181.5t131 -70.5q53 0 113.5 44t101.5 97l76 531 q-29 2 -56 2q-64 0 -116 -14q-74 -19 -127 -55t-87 -85t-53.5 -98t-26.5 -94t-7 -76zM299 1069l268 303h203l153 -303h-84l-170 203l-274 -203h-96z" />
<glyph unicode="&#xe3;" d="M72 346q0 111 34.5 218.5t109.5 192.5t193.5 138t286.5 53q49 0 113.5 -8t103.5 -20l-129 -920h-174l17 106l-4 5q-53 -59 -118 -94t-130 -35q-63 0 -118.5 28.5t-96.5 77.5t-64.5 115.5t-23.5 142.5zM250 377q0 -111 51 -181.5t131 -70.5q53 0 113.5 44t101.5 97l76 531 q-29 2 -56 2q-64 0 -116 -14q-74 -19 -127 -55t-87 -85t-53.5 -98t-26.5 -94t-7 -76zM289 1104q2 111 46 172t119 61q29 0 68 -12t79 -26.5t76.5 -26.5t63.5 -12q59 0 70 75h80q0 -45 -10.5 -87t-32 -74.5t-53 -52t-72.5 -19.5q-20 0 -58.5 12t-79 26.5t-80.5 27t-65 12.5 q-29 0 -47 -20.5t-23 -55.5h-81z" />
<glyph unicode="&#xe4;" d="M72 346q0 111 34.5 218.5t109.5 192.5t193.5 138t286.5 53q49 0 113.5 -8t103.5 -20l-129 -920h-174l17 106l-4 5q-53 -59 -118 -94t-130 -35q-63 0 -118.5 28.5t-96.5 77.5t-64.5 115.5t-23.5 142.5zM250 377q0 -111 51 -181.5t131 -70.5q53 0 113.5 44t101.5 97l76 531 q-29 2 -56 2q-64 0 -116 -14q-74 -19 -127 -55t-87 -85t-53.5 -98t-26.5 -94t-7 -76zM352 1214q0 39 27.5 67t66.5 28t66.5 -28t27.5 -67t-27.5 -66.5t-66.5 -27.5t-66.5 27.5t-27.5 66.5zM719 1214q0 39 27.5 67t66.5 28t66.5 -28t27.5 -67t-27.5 -66.5t-66.5 -27.5 t-66.5 27.5t-27.5 66.5z" />
<glyph unicode="&#xe5;" d="M72 346q0 111 34.5 218.5t109.5 192.5t193.5 138t286.5 53q49 0 113.5 -8t103.5 -20l-129 -920h-174l17 106l-4 5q-53 -59 -118 -94t-130 -35q-63 0 -118.5 28.5t-96.5 77.5t-64.5 115.5t-23.5 142.5zM250 377q0 -111 51 -181.5t131 -70.5q53 0 113.5 44t101.5 97l76 531 q-29 2 -56 2q-64 0 -116 -14q-74 -19 -127 -55t-87 -85t-53.5 -98t-26.5 -94t-7 -76zM436 1223q0 41 15.5 75.5t41 60t61.5 41t75 15.5q41 0 75.5 -15.5t60 -41t41 -60t15.5 -75.5q0 -39 -15.5 -75t-41 -61.5t-60.5 -41t-75 -15.5q-39 0 -75 15.5t-61.5 41t-41 61.5 t-15.5 75zM516 1219q0 -47 32.5 -80t80.5 -33q47 0 79.5 32.5t32.5 80.5q0 47 -32.5 79.5t-79.5 32.5t-80 -32.5t-33 -79.5z" />
<glyph unicode="&#xe6;" horiz-adv-x="1323" d="M25 190q0 55 27.5 106.5t88 95.5t157.5 81t237 62q37 119 4 190.5t-113 71.5q-61 0 -143 -46t-160 -124l29 196q86 68 153.5 96.5t153.5 28.5q139 0 205 -125q53 57 129.5 91t154.5 34q80 0 143.5 -42t103.5 -112.5t54.5 -162.5t-2.5 -191h-547q-18 -84 -8 -145.5 t40 -101t76 -59t97 -19.5q61 0 141 34.5t158 94.5l-24 -178q-150 -94 -299 -95q-104 0 -184.5 44t-127.5 130q-82 -92 -164.5 -133t-144.5 -41q-109 0 -172 59.5t-63 159.5zM203 199q0 -37 25.5 -60.5t66.5 -23.5q90 0 199 102l26 191q-147 -29 -232 -84t-85 -125zM717 561 h373q2 25 -3.5 66t-24 81t-53 68.5t-91.5 28.5q-72 0 -131.5 -58.5t-69.5 -185.5z" />
<glyph unicode="&#xe7;" horiz-adv-x="788" d="M49 395q0 113 42 213.5t120 176t188.5 119.5t245.5 44q35 0 75 -4t83 -12l-23 -154q-66 14 -133 15q-96 0 -174 -33t-132 -87.5t-84 -124t-30 -142.5q0 -131 67.5 -205t184.5 -74q70 0 128.5 19.5t123.5 58.5l-20 -168q-66 -35 -127.5 -50.5t-141.5 -15.5l-10 -26 q94 -43 94 -140q0 -76 -62.5 -126t-154.5 -50q-35 0 -71.5 4.5t-67.5 10.5l25 94q57 -14 86 -14q45 0 70.5 21.5t25.5 55.5q0 43 -55 72l51 107q-152 23 -238 132t-86 283z" />
<glyph unicode="&#xe8;" horiz-adv-x="897" d="M78 416q0 113 33.5 210t92 168.5t138.5 112.5t172 41q78 0 142.5 -33.5t108.5 -96t63 -149.5q11 -50 12 -106q0 -41 -6 -86h-574q-9 -49 -9 -91q0 -37 7 -70q14 -69 49 -112.5t85 -66t104 -22.5q129 0 299 125l-25 -166q-139 -102 -307 -103q-88 0 -159 32t-121 90.5 t-77.5 140.5t-27.5 182zM287 598h385q0 88 -40 147.5t-126 59.5q-149 0 -219 -207zM314 1372h207l139 -299h-115z" />
<glyph unicode="&#xe9;" horiz-adv-x="897" d="M78 416q0 113 33.5 210t92 168.5t138.5 112.5t172 41q78 0 142.5 -33.5t108.5 -96t63 -149.5q11 -50 12 -106q0 -41 -6 -86h-574q-9 -49 -9 -91q0 -37 7 -70q14 -69 49 -112.5t85 -66t104 -22.5q129 0 299 125l-25 -166q-139 -102 -307 -103q-88 0 -159 32t-121 90.5 t-77.5 140.5t-27.5 182zM287 598h385q0 88 -40 147.5t-126 59.5q-149 0 -219 -207zM433 1073l139 299h207l-232 -299h-114z" />
<glyph unicode="&#xea;" horiz-adv-x="897" d="M78 416q0 113 33.5 210t92 168.5t138.5 112.5t172 41q78 0 142.5 -33.5t108.5 -96t63 -149.5q11 -50 12 -106q0 -41 -6 -86h-574q-9 -49 -9 -91q0 -37 7 -70q14 -69 49 -112.5t85 -66t104 -22.5q129 0 299 125l-25 -166q-139 -102 -307 -103q-88 0 -159 32t-121 90.5 t-77.5 140.5t-27.5 182zM287 598h385q0 88 -40 147.5t-126 59.5q-149 0 -219 -207zM228 1069l268 303h203l153 -303h-84l-170 203l-274 -203h-96z" />
<glyph unicode="&#xeb;" horiz-adv-x="897" d="M78 416q0 113 33.5 210t92 168.5t138.5 112.5t172 41q78 0 142.5 -33.5t108.5 -96t63 -149.5q11 -50 12 -106q0 -41 -6 -86h-574q-9 -49 -9 -91q0 -37 7 -70q14 -69 49 -112.5t85 -66t104 -22.5q129 0 299 125l-25 -166q-139 -102 -307 -103q-88 0 -159 32t-121 90.5 t-77.5 140.5t-27.5 182zM287 598h385q0 88 -40 147.5t-126 59.5q-149 0 -219 -207zM281 1214q0 39 27.5 67t66.5 28t66.5 -28t27.5 -67t-27.5 -66.5t-66.5 -27.5t-66.5 27.5t-27.5 66.5zM648 1214q0 39 27.5 67t66.5 28t66.5 -28t27.5 -67t-27.5 -66.5t-66.5 -27.5 t-66.5 27.5t-27.5 66.5z" />
<glyph unicode="&#xec;" horiz-adv-x="385" d="M47 0l129 920h174l-129 -920h-174zM60 1372h207l139 -299h-115z" />
<glyph unicode="&#xed;" horiz-adv-x="385" d="M47 0l129 920h174l-129 -920h-174zM179 1073l139 299h207l-232 -299h-114z" />
<glyph unicode="&#xee;" horiz-adv-x="385" d="M47 0l129 920h174l-129 -920h-174zM-26 1069l268 303h203l153 -303h-84l-170 203l-274 -203h-96z" />
<glyph unicode="&#xef;" horiz-adv-x="385" d="M47 0l129 920h174l-129 -920h-174zM27 1214q0 39 27.5 67t66.5 28t66.5 -28t27.5 -67t-27.5 -66.5t-66.5 -27.5t-66.5 27.5t-27.5 66.5zM394 1214q0 39 27.5 67t66.5 28t66.5 -28t27.5 -67t-27.5 -66.5t-66.5 -27.5t-66.5 27.5t-27.5 66.5z" />
<glyph unicode="&#xf0;" horiz-adv-x="917" d="M74 385q0 117 33.5 220.5t93 179t138.5 119.5t171 44q41 0 85 -11t85 -50l4 4q-10 59 -42 132t-77 138l-186 -100l-51 82l176 92q-35 41 -72 65l107 115q63 -39 116 -100l191 100l49 -80l-182 -96q43 -63 75.5 -138t53 -151t31 -148.5t10.5 -135.5q0 -143 -34 -270.5 t-96.5 -221.5t-150.5 -148.5t-194 -54.5q-156 0 -245 110.5t-89 303.5zM250 358q0 -49 12 -94t33.5 -79.5t51.5 -55t65 -20.5q59 0 112.5 40.5t93 105t62 143.5t22.5 153q0 139 -50 199.5t-140 60.5q-57 0 -105.5 -38t-83 -101.5t-54 -145.5t-19.5 -168z" />
<glyph unicode="&#xf1;" d="M61 0l129 920h175l-23 -162l4 -4q147 180 305 180q74 0 120 -34t71.5 -86t31.5 -115q2 -23 3 -46q0 -38 -7 -73l-88 -580h-172l84 586q4 32 5 58q0 23 -4 41q-7 40 -22.5 63.5t-37 33t-41.5 9.5q-18 0 -45 -8.5t-62.5 -31t-77.5 -62.5t-92 -103l-84 -586h-172zM289 1104 q2 111 46 172t119 61q29 0 68 -12t79 -26.5t76.5 -26.5t63.5 -12q59 0 70 75h80q0 -45 -10.5 -87t-32 -74.5t-53 -52t-72.5 -19.5q-20 0 -58.5 12t-79 26.5t-80.5 27t-65 12.5q-29 0 -47 -20.5t-23 -55.5h-81z" />
<glyph unicode="&#xf2;" horiz-adv-x="917" d="M74 383q0 121 33.5 224.5t93 179t139.5 118.5t174 43q158 0 250 -109.5t92 -291.5q0 -129 -34 -235.5t-93 -181.5t-139 -117t-170 -42q-164 0 -255 108.5t-91 303.5zM252 365q0 -111 47 -177.5t115 -66.5q55 0 103 32.5t84 90t56.5 138.5t20.5 175q0 117 -44 185.5 t-120 68.5q-55 0 -103.5 -37t-84 -98.5t-55 -142t-19.5 -168.5zM324 1372h207l139 -299h-115z" />
<glyph unicode="&#xf3;" horiz-adv-x="917" d="M74 383q0 121 33.5 224.5t93 179t139.5 118.5t174 43q158 0 250 -109.5t92 -291.5q0 -129 -34 -235.5t-93 -181.5t-139 -117t-170 -42q-164 0 -255 108.5t-91 303.5zM252 365q0 -111 47 -177.5t115 -66.5q55 0 103 32.5t84 90t56.5 138.5t20.5 175q0 117 -44 185.5 t-120 68.5q-55 0 -103.5 -37t-84 -98.5t-55 -142t-19.5 -168.5zM443 1073l139 299h207l-232 -299h-114z" />
<glyph unicode="&#xf4;" horiz-adv-x="917" d="M74 383q0 121 33.5 224.5t93 179t139.5 118.5t174 43q158 0 250 -109.5t92 -291.5q0 -129 -34 -235.5t-93 -181.5t-139 -117t-170 -42q-164 0 -255 108.5t-91 303.5zM252 365q0 -111 47 -177.5t115 -66.5q55 0 103 32.5t84 90t56.5 138.5t20.5 175q0 117 -44 185.5 t-120 68.5q-55 0 -103.5 -37t-84 -98.5t-55 -142t-19.5 -168.5zM238 1069l268 303h203l153 -303h-84l-170 203l-274 -203h-96z" />
<glyph unicode="&#xf5;" horiz-adv-x="917" d="M74 383q0 121 33.5 224.5t93 179t139.5 118.5t174 43q158 0 250 -109.5t92 -291.5q0 -129 -34 -235.5t-93 -181.5t-139 -117t-170 -42q-164 0 -255 108.5t-91 303.5zM252 365q0 -111 47 -177.5t115 -66.5q55 0 103 32.5t84 90t56.5 138.5t20.5 175q0 117 -44 185.5 t-120 68.5q-55 0 -103.5 -37t-84 -98.5t-55 -142t-19.5 -168.5zM269 1104q2 111 46 172t119 61q29 0 68 -12t79 -26.5t76.5 -26.5t63.5 -12q59 0 70 75h80q0 -45 -10.5 -87t-32 -74.5t-53 -52t-72.5 -19.5q-20 0 -58.5 12t-79 26.5t-80.5 27t-65 12.5q-29 0 -47 -20.5 t-23 -55.5h-81z" />
<glyph unicode="&#xf6;" horiz-adv-x="917" d="M74 383q0 121 33.5 224.5t93 179t139.5 118.5t174 43q158 0 250 -109.5t92 -291.5q0 -129 -34 -235.5t-93 -181.5t-139 -117t-170 -42q-164 0 -255 108.5t-91 303.5zM252 365q0 -111 47 -177.5t115 -66.5q55 0 103 32.5t84 90t56.5 138.5t20.5 175q0 117 -44 185.5 t-120 68.5q-55 0 -103.5 -37t-84 -98.5t-55 -142t-19.5 -168.5zM291 1214q0 39 27.5 67t66.5 28t66.5 -28t27.5 -67t-27.5 -66.5t-66.5 -27.5t-66.5 27.5t-27.5 66.5zM658 1214q0 39 27.5 67t66.5 28t66.5 -28t27.5 -67t-27.5 -66.5t-66.5 -27.5t-66.5 27.5t-27.5 66.5z" />
<glyph unicode="&#xf7;" horiz-adv-x="1196" d="M145 639v168h967v-168h-967zM520 422q0 45 32 76.5t77 31.5t76.5 -31.5t31.5 -76.5t-31.5 -77t-76.5 -32t-77 32t-32 77zM520 1024q0 45 32 77t77 32t76.5 -32t31.5 -77t-31.5 -77t-76.5 -32t-77 32t-32 77z" />
<glyph unicode="&#xf8;" horiz-adv-x="917" d="M37 35l90 104q-53 100 -53 244q0 121 33.5 224.5t93 179t139.5 118.5t174 43q143 0 231 -92l76 88l60 -65l-80 -95q27 -47 41 -107.5t14 -129.5q0 -129 -34 -235.5t-93 -181.5t-139 -117t-170 -42q-150 0 -238 92l-84 -96zM252 365q0 -41 8 -72l377 438q-45 80 -123 80 q-55 0 -103.5 -37t-84 -98.5t-55 -142t-19.5 -168.5zM295 195q45 -74 119 -74q55 0 103 32.5t84 90t56.5 138.5t20.5 175q0 43 -6 76z" />
<glyph unicode="&#xf9;" d="M86 313l86 607h174l-86 -607q-4 -33 -4 -58q0 -23 3 -41q7 -38 23.5 -59.5t37 -28.5t38.5 -7q51 0 117 45t160 158l84 598h174l-131 -920h-172l20 152l-4 4q-27 -29 -59.5 -58.5t-71.5 -54.5t-82 -41t-90 -16q-39 0 -82 15t-77.5 53t-52.5 102q-10 37 -10 85q0 33 5 72z M344 1372h207l139 -299h-115z" />
<glyph unicode="&#xfa;" d="M86 313l86 607h174l-86 -607q-4 -33 -4 -58q0 -23 3 -41q7 -38 23.5 -59.5t37 -28.5t38.5 -7q51 0 117 45t160 158l84 598h174l-131 -920h-172l20 152l-4 4q-27 -29 -59.5 -58.5t-71.5 -54.5t-82 -41t-90 -16q-39 0 -82 15t-77.5 53t-52.5 102q-10 37 -10 85q0 33 5 72z M463 1073l139 299h207l-232 -299h-114z" />
<glyph unicode="&#xfb;" d="M86 313l86 607h174l-86 -607q-4 -33 -4 -58q0 -23 3 -41q7 -38 23.5 -59.5t37 -28.5t38.5 -7q51 0 117 45t160 158l84 598h174l-131 -920h-172l20 152l-4 4q-27 -29 -59.5 -58.5t-71.5 -54.5t-82 -41t-90 -16q-39 0 -82 15t-77.5 53t-52.5 102q-10 37 -10 85q0 33 5 72z M258 1069l268 303h203l153 -303h-84l-170 203l-274 -203h-96z" />
<glyph unicode="&#xfc;" d="M86 313l86 607h174l-86 -607q-4 -33 -4 -58q0 -23 3 -41q7 -38 23.5 -59.5t37 -28.5t38.5 -7q51 0 117 45t160 158l84 598h174l-131 -920h-172l20 152l-4 4q-27 -29 -59.5 -58.5t-71.5 -54.5t-82 -41t-90 -16q-39 0 -82 15t-77.5 53t-52.5 102q-10 37 -10 85q0 33 5 72z M311 1214q0 39 27.5 67t66.5 28t66.5 -28t27.5 -67t-27.5 -66.5t-66.5 -27.5t-66.5 27.5t-27.5 66.5zM678 1214q0 39 27.5 67t66.5 28t66.5 -28t27.5 -67t-27.5 -66.5t-66.5 -27.5t-66.5 27.5t-27.5 66.5z" />
<glyph unicode="&#xfd;" horiz-adv-x="768" d="M-25 -471l250 526l-178 865h174l123 -633h4l289 633h182l-659 -1391h-185zM367 1073l139 299h207l-232 -299h-114z" />
<glyph unicode="&#xfe;" horiz-adv-x="1003" d="M27 -471l262 1868h174l-68 -477q20 8 39 13t37 9q37 6 80 6q82 0 151.5 -32.5t120.5 -89t80 -135.5t29 -171q0 -86 -31 -183t-97.5 -178t-172 -134.5t-254.5 -53.5h-115l-61 -442h-174zM283 119h84q100 0 172.5 38t121 96t71 129t22.5 138q0 78 -22.5 134.5t-59.5 92 t-84 53t-96 17.5q-35 0 -56.5 -5t-58.5 -21z" />
<glyph unicode="&#xff;" horiz-adv-x="768" d="M-25 -471l250 526l-178 865h174l123 -633h4l289 633h182l-659 -1391h-185zM215 1214q0 39 27.5 67t66.5 28t66.5 -28t27.5 -67t-27.5 -66.5t-66.5 -27.5t-66.5 27.5t-27.5 66.5zM582 1214q0 39 27.5 67t66.5 28t66.5 -28t27.5 -67t-27.5 -66.5t-66.5 -27.5t-66.5 27.5 t-27.5 66.5z" />
<glyph unicode="&#x131;" horiz-adv-x="385" d="M47 0l129 920h174l-129 -920h-174z" />
<glyph unicode="&#x152;" horiz-adv-x="1984" d="M104 621q0 61 16.5 143t54.5 168t97.5 170t144.5 149.5t198.5 105.5t256.5 40h1037l-25 -166h-563l-59 -436h528l-25 -166h-528l-63 -463h751l-22 -166h-926q-12 0 -38 -1t-60 -3q-35 -2 -72 -3t-74 -1q-182 0 -303 56t-193.5 146.5t-102.5 202t-30 224.5zM303 602 q0 -221 105.5 -328.5t279.5 -107.5h301l150 1065h-115h-56q-24 0 -44.5 1t-38.5 1h-41q-125 0 -224.5 -44t-170 -127t-108.5 -199t-38 -261z" />
<glyph unicode="&#x153;" horiz-adv-x="1472" d="M55 383q0 121 34 224.5t93.5 179t139 118.5t174.5 43q180 0 272 -164q131 164 299 164q170 0 253 -120.5t66 -346.5h-567q-14 -78 -7 -144.5t37 -115.5t82 -77.5t128 -28.5q72 0 147.5 35.5t141.5 101.5l-29 -193q-70 -47 -135.5 -67.5t-136.5 -20.5q-219 0 -347 191 q-68 -94 -145.5 -142.5t-153.5 -48.5q-164 0 -255 108.5t-91 303.5zM233 365q0 -111 46.5 -177.5t115.5 -66.5q53 -4 97.5 29.5t77 96t51 148.5t18.5 187q0 102 -41 163.5t-102 65.5q-57 0 -105.5 -37t-83.5 -98.5t-54.5 -142t-19.5 -168.5zM836 602h385q-2 98 -46.5 153.5 t-123.5 55.5q-78 0 -135 -55.5t-80 -153.5z" />
<glyph unicode="&#x178;" horiz-adv-x="1003" d="M139 1397h195l237 -512l357 512h213l-490 -701l-98 -696h-184l98 696zM393 1660q0 39 27.5 67t66.5 28t66.5 -28t27.5 -67t-27.5 -66.5t-66.5 -27.5t-66.5 27.5t-27.5 66.5zM760 1660q0 39 27.5 67t66.5 28t66.5 -28t27.5 -67t-27.5 -66.5t-66.5 -27.5t-66.5 27.5 t-27.5 66.5z" />
<glyph unicode="&#x2c6;" horiz-adv-x="681" d="M119 1069l268 303h203l153 -303h-84l-170 203l-274 -203h-96z" />
<glyph unicode="&#x2da;" horiz-adv-x="681" d="M256 1223q0 41 15.5 75.5t41 60t61.5 41t75 15.5q41 0 75.5 -15.5t60 -41t41 -60t15.5 -75.5q0 -39 -15.5 -75t-41 -61.5t-60.5 -41t-75 -15.5q-39 0 -75 15.5t-61.5 41t-41 61.5t-15.5 75zM336 1219q0 -47 32.5 -80t80.5 -33q47 0 79.5 32.5t32.5 80.5q0 47 -32.5 79.5 t-79.5 32.5t-80 -32.5t-33 -79.5z" />
<glyph unicode="&#x2dc;" horiz-adv-x="681" d="M150 1104q2 111 46 172t119 61q29 0 68 -12t79 -26.5t76.5 -26.5t63.5 -12q59 0 70 75h80q0 -45 -10.5 -87t-32 -74.5t-53 -52t-72.5 -19.5q-20 0 -58.5 12t-79 26.5t-80.5 27t-65 12.5q-29 0 -47 -20.5t-23 -55.5h-81z" />
<glyph unicode="&#x2000;" horiz-adv-x="929" />
<glyph unicode="&#x2001;" horiz-adv-x="1861" />
<glyph unicode="&#x2002;" horiz-adv-x="929" />
<glyph unicode="&#x2003;" horiz-adv-x="1861" />
<glyph unicode="&#x2004;" horiz-adv-x="620" />
<glyph unicode="&#x2005;" horiz-adv-x="464" />
<glyph unicode="&#x2006;" horiz-adv-x="309" />
<glyph unicode="&#x2007;" horiz-adv-x="309" />
<glyph unicode="&#x2008;" horiz-adv-x="231" />
<glyph unicode="&#x2009;" horiz-adv-x="370" />
<glyph unicode="&#x200a;" horiz-adv-x="102" />
<glyph unicode="&#x2010;" horiz-adv-x="512" d="M0 369l25 174h487l-25 -174h-487z" />
<glyph unicode="&#x2011;" horiz-adv-x="512" d="M0 369l25 174h487l-25 -174h-487z" />
<glyph unicode="&#x2012;" horiz-adv-x="512" d="M0 369l25 174h487l-25 -174h-487z" />
<glyph unicode="&#x2013;" horiz-adv-x="1024" d="M-18 453v131h1060v-131h-1060z" />
<glyph unicode="&#x2014;" horiz-adv-x="2048" d="M-18 453v131h2084v-131h-2084z" />
<glyph unicode="&#x2018;" horiz-adv-x="405" d="M158 1083q0 59 23.5 111.5t66.5 95.5t102.5 75t132.5 48l-12 -90q-135 -45 -135 -176q80 -35 80 -105q0 -53 -36 -86.5t-93 -33.5q-55 0 -92 45.5t-37 115.5z" />
<glyph unicode="&#x2019;" horiz-adv-x="405" d="M123 924l12 90q135 45 135 176q-80 35 -80 104q0 53 36 87t93 34q55 0 92.5 -46t37.5 -116q0 -57 -24 -110t-67 -96t-102 -75t-133 -48z" />
<glyph unicode="&#x201a;" horiz-adv-x="405" d="M-49 -295l12 90q135 45 135 176q-80 35 -80 105q0 53 36 87t93 34q55 0 92 -46.5t37 -115.5q0 -59 -23.5 -111.5t-66.5 -95.5t-102 -75t-133 -48z" />
<glyph unicode="&#x201c;" horiz-adv-x="831" d="M133 1083q0 59 23.5 111.5t66.5 95.5t102.5 75t133.5 48l-13 -90q-135 -45 -135 -176q80 -35 80 -105q0 -53 -36 -86.5t-93 -33.5q-55 0 -92 45.5t-37 115.5zM573 1083q0 59 24 111.5t67 95.5t102 75t133 48l-12 -90q-135 -45 -135 -176q80 -35 79 -105 q0 -53 -35.5 -86.5t-93.5 -33.5q-55 0 -92 45.5t-37 115.5z" />
<glyph unicode="&#x201d;" horiz-adv-x="831" d="M127 924l12 90q135 45 135 176q-80 35 -79 104q0 53 35.5 87t93.5 34q55 0 92 -46t37 -116q0 -57 -23.5 -110t-67 -96t-102.5 -75t-133 -48zM567 924l13 90q135 45 135 176q-80 35 -80 104q0 53 36 87t93 34q55 0 92 -46t37 -116q0 -57 -23.5 -110t-66.5 -96t-102.5 -75 t-133.5 -48z" />
<glyph unicode="&#x201e;" horiz-adv-x="831" d="M-49 -295l12 90q135 45 135 176q-80 35 -80 105q0 53 36 87t93 34q55 0 92 -46.5t37 -115.5q0 -59 -23.5 -111.5t-66.5 -95.5t-102 -75t-133 -48zM391 -295l12 90q135 45 136 176q-80 35 -80 105q0 53 35.5 87t93.5 34q55 0 92 -46.5t37 -115.5q0 -59 -23.5 -111.5 t-66.5 -95.5t-102.5 -75t-133.5 -48z" />
<glyph unicode="&#x2022;" horiz-adv-x="724" d="M139 698q0 53 20.5 99.5t54.5 80t81 54t98 20.5q53 0 99.5 -20.5t80 -54t54 -79.5t20.5 -100q0 -51 -20.5 -98t-54 -81t-80 -54.5t-99.5 -20.5q-51 0 -98 20.5t-81 54.5t-54.5 81t-20.5 98z" />
<glyph unicode="&#x2026;" horiz-adv-x="2048" d="M158 102q0 51 34.5 86t86.5 35q51 0 86.5 -34.5t35.5 -86.5q0 -51 -35.5 -85.5t-86.5 -34.5t-86 34.5t-35 85.5zM840 104q0 51 35.5 87t87.5 36q51 0 86.5 -35.5t35.5 -87.5q0 -51 -35.5 -86.5t-86.5 -35.5t-87 35.5t-36 86.5zM1524 104q0 51 34.5 87t88.5 36 q51 0 85.5 -35.5t34.5 -87.5q0 -51 -34.5 -86.5t-85.5 -35.5q-53 0 -88 35.5t-35 86.5z" />
<glyph unicode="&#x202f;" horiz-adv-x="370" />
<glyph unicode="&#x2039;" horiz-adv-x="468" d="M0 459l344 461h158l-355 -482l172 -438h-139z" />
<glyph unicode="&#x203a;" horiz-adv-x="468" d="M-74 0l355 481l-172 439h139l180 -459l-344 -461h-158z" />
<glyph unicode="&#x205f;" horiz-adv-x="464" />
<glyph unicode="&#x2122;" horiz-adv-x="2048" d="M143 1346v120h666v-120h-266v-695h-135v695h-265zM901 651v815h201l203 -651h4l196 651h197v-815h-125v684h-4l-205 -684h-123l-215 695h-4v-695h-125z" />
<glyph unicode="&#xe000;" horiz-adv-x="920" d="M0 920h920v-920h-920v920z" />
<glyph unicode="&#xfb01;" horiz-adv-x="980" d="M53 -387l170 1153h-135l23 154h133q16 117 44.5 208t78 155.5t121 98t174.5 33.5q70 0 125 -19.5t93 -55t58 -83t20 -102.5h-165q-10 51 -47 81t-91 30q-66 0 -106.5 -22.5t-65 -66.5t-40 -108.5t-27.5 -148.5h196l-22 -154h-195l-172 -1153h-170zM621 0l135 920h174 l-135 -920h-174z" />
<glyph unicode="&#xfb02;" horiz-adv-x="980" d="M53 -387l170 1153h-133l23 154h131q35 262 131 378.5t274 116.5q33 0 51.5 -3t49.5 -15l-21 -142q-35 10 -78 11q-63 0 -105 -30t-68.5 -78t-40 -110.5t-19.5 -127.5h200l-28 -154h-193l-174 -1153h-170zM618 0l207 1397h174l-206 -1397h-175z" />
<glyph unicode="&#xfb03;" horiz-adv-x="1495" d="M1157 0l129 920h174l-129 -920h-174zM1305 1208q0 41 29.5 71t70.5 30t70.5 -30t29.5 -71t-29.5 -70.5t-70.5 -29.5t-70.5 29.5t-29.5 70.5zM616 -387l148 1153h-148l23 154h145q6 104 36 194t84 157.5t134 105.5t189 38q59 0 112.5 -11t110.5 -32l-25 -172 q-45 25 -92 38t-88 13q-129 0 -201.5 -85t-87.5 -246h187l-23 -154h-186l-148 -1153h-170zM61 -387l148 1153h-148l23 154h145q6 104 36 194t84 157.5t134 105.5t189 38q59 0 112.5 -11t110.5 -32l-25 -172q-45 25 -92 38t-88 13q-129 0 -201.5 -85t-87.5 -246h187l-23 -154 h-186l-148 -1153h-170z" />
<glyph unicode="&#xfb04;" horiz-adv-x="1495" d="M1157 0l197 1397h174l-197 -1397h-174zM616 -387l148 1153h-148l23 154h145q6 104 36 194t84 157.5t134 105.5t189 38q59 0 112.5 -11t110.5 -32l-25 -172q-45 25 -92 38t-88 13q-129 0 -201.5 -85t-87.5 -246h187l-23 -154h-186l-148 -1153h-170zM61 -387l148 1153h-148 l23 154h145q6 104 36 194t84 157.5t134 105.5t189 38q59 0 112.5 -11t110.5 -32l-25 -172q-45 25 -92 38t-88 13q-129 0 -201.5 -85t-87.5 -246h187l-23 -154h-186l-148 -1153h-170z" />
</font>
</defs>
</svg>
